<svg width="656" height="628" viewBox="0 0 656 628" fill="none" xmlns="http://www.w3.org/2000/svg">
<path d="M656 501.709H0V502.037H656V501.709Z" fill="#EBEBEB"/>
<path d="M590.269 522.819H561.825V523.147H590.269V522.819Z" fill="#EBEBEB"/>
<path d="M452.207 516.023H407.455V516.351H452.207V516.023Z" fill="#EBEBEB"/>
<path d="M578.749 510.644H520.326V510.972H578.749V510.644Z" fill="#EBEBEB"/>
<path d="M227.002 517.256H212.387V517.584H227.002V517.256Z" fill="#EBEBEB"/>
<path d="M200.697 517.256H150.329V517.584H200.697V517.256Z" fill="#EBEBEB"/>
<path d="M123.341 511.719H86.9987V512.047H123.341V511.719Z" fill="#EBEBEB"/>
<path d="M310.944 443.194H57.6099C55.6253 443.19 53.7232 442.399 52.3211 440.995C50.919 439.59 50.1315 437.687 50.1315 435.702V79.586C50.1488 77.6127 50.9439 75.726 52.3441 74.3356C53.7444 72.9452 55.6366 72.1634 57.6099 72.16H310.944C312.931 72.16 314.836 72.9493 316.241 74.3542C317.646 75.7592 318.436 77.6647 318.436 79.6516V435.702C318.436 437.689 317.646 439.595 316.241 440.999C314.836 442.404 312.931 443.194 310.944 443.194ZM57.6099 72.4224C55.7123 72.4259 53.8936 73.1822 52.553 74.5252C51.2125 75.8683 50.4595 77.6883 50.4595 79.586V435.702C50.4595 437.6 51.2125 439.42 52.553 440.763C53.8936 442.106 55.7123 442.862 57.6099 442.866H310.944C312.843 442.862 314.663 442.106 316.006 440.764C317.348 439.421 318.104 437.601 318.108 435.702V79.586C318.104 77.6871 317.348 75.8671 316.006 74.5244C314.663 73.1817 312.843 72.4259 310.944 72.4224H57.6099Z" fill="#EBEBEB"/>
<path d="M594.743 443.194H341.396C339.41 443.19 337.506 442.4 336.102 440.996C334.698 439.591 333.907 437.688 333.904 435.702V79.586C333.925 77.6115 334.723 75.7248 336.125 74.3348C337.527 72.9448 339.421 72.1634 341.396 72.16H594.743C596.714 72.1669 598.603 72.9502 600 74.3402C601.397 75.7303 602.191 77.615 602.208 79.586V435.702C602.208 437.684 601.422 439.586 600.023 440.99C598.624 442.394 596.725 443.187 594.743 443.194ZM341.396 72.4224C339.497 72.4259 337.677 73.1817 336.334 74.5244C334.991 75.8671 334.235 77.6871 334.232 79.586V435.702C334.235 437.601 334.991 439.421 336.334 440.764C337.677 442.106 339.497 442.862 341.396 442.866H594.743C596.642 442.862 598.462 442.106 599.804 440.764C601.147 439.421 601.903 437.601 601.906 435.702V79.586C601.903 77.6871 601.147 75.8671 599.804 74.5244C598.462 73.1817 596.642 72.4259 594.743 72.4224H341.396Z" fill="#EBEBEB"/>
<path d="M283.484 263.555L284.074 246.315L273.5 242.851C273.045 237.009 272.097 231.215 270.666 225.533L279.64 218.973L273.552 202.783L262.452 203.675C259.821 198.459 256.748 193.477 253.268 188.784L259.015 179.193L247.207 166.585L237.288 171.662C232.828 167.85 228.063 164.409 223.04 161.376L224.641 150.355L208.897 143.218L201.681 151.667C196.114 149.886 190.409 148.57 184.625 147.731L182.001 136.933L164.709 136.343L161.297 146.931C155.461 147.39 149.672 148.333 143.992 149.752L137.327 140.83L121.137 146.878L122.029 157.978C116.816 160.65 111.835 163.752 107.138 167.254L97.4816 161.376L84.8208 173.184L89.8982 183.155C86.0848 187.593 82.6609 192.351 79.6647 197.377L68.657 195.724L61.4672 211.468L69.969 218.671C68.1756 224.234 66.8588 229.94 66.033 235.727L55.104 238.469L54.5136 255.709L65.1408 259.172C65.5804 265.011 66.5242 270.801 67.9616 276.478L58.9875 283.038L65.0883 299.241L76.1879 298.349C78.8128 303.569 81.8857 308.551 85.3719 313.24L79.6122 322.831L91.4202 335.439L101.339 330.362C105.787 334.173 110.544 337.609 115.561 340.635L113.908 351.642L129.652 358.793L136.907 350.343C142.474 352.14 148.178 353.478 153.963 354.345L156.587 365.143L173.879 365.733L177.291 355.145C183.131 354.681 188.923 353.738 194.609 352.324L201.169 361.246L217.359 355.198L216.519 344.098C221.723 341.41 226.703 338.308 231.411 334.822L240.949 340.569L253.61 328.761L248.532 318.79C252.347 314.353 255.771 309.594 258.766 304.568L269.773 306.221L276.963 290.477L268.461 283.261C270.285 277.702 271.624 271.995 272.463 266.205L283.484 263.555ZM166.991 319.406C153.462 318.949 140.372 314.49 129.377 306.592C118.383 298.695 109.977 287.714 105.225 275.038C100.472 262.363 99.5849 248.563 102.676 235.383C105.768 222.204 112.699 210.237 122.592 200.998C132.485 191.758 144.897 185.66 158.257 183.475C171.616 181.29 185.324 183.116 197.645 188.723C209.967 194.33 220.349 203.465 227.478 214.973C234.607 226.481 238.162 239.844 237.695 253.373C237.072 271.505 229.274 288.646 216.016 301.029C202.757 313.412 185.123 320.022 166.991 319.406Z" fill="#EBEBEB"/>
<path d="M578.592 206.535L582.935 202.481L581.216 199.057C582.527 197.522 583.708 195.881 584.745 194.15L588.55 194.714L591.004 189.282L588.091 186.803C588.718 184.882 589.179 182.911 589.469 180.912L593.208 179.98L593.391 174.024L589.744 172.843C589.584 170.826 589.259 168.825 588.773 166.86L591.856 164.564L589.757 158.988L585.939 159.29C585.018 157.492 583.952 155.772 582.751 154.147L584.732 150.867L580.652 146.511L577.241 148.256C575.704 146.948 574.063 145.768 572.334 144.727L572.885 140.922L567.466 138.442L564.973 141.368C563.049 140.769 561.079 140.33 559.083 140.056L558.151 136.33L552.195 136.107L551.001 139.781C548.991 139.934 546.998 140.259 545.044 140.751L542.761 137.668L537.172 139.754L537.487 143.585C535.684 144.497 533.963 145.564 532.344 146.773L529.038 144.792L524.682 148.846L526.374 152.192C525.054 153.722 523.869 155.364 522.832 157.099L519.04 156.535L516.574 161.966L519.5 164.459C518.893 166.377 518.454 168.344 518.188 170.337L514.435 171.269L514.252 177.225L517.912 178.406C518.061 180.424 518.382 182.425 518.87 184.389L515.773 186.671L517.873 192.247L521.704 191.959C522.624 193.757 523.691 195.477 524.892 197.102L522.911 200.382L526.991 204.738L530.402 202.993C531.936 204.305 533.577 205.486 535.309 206.522L534.745 210.314L540.177 212.793L542.669 209.881C544.595 210.474 546.565 210.912 548.56 211.193L549.492 214.919L555.448 215.142L556.642 211.468C558.652 211.315 560.645 210.991 562.599 210.497L564.882 213.581L570.471 211.494L570.169 207.663C571.968 206.75 573.684 205.684 575.299 204.475L578.592 206.535ZM547.603 181.437C546.457 180.209 545.701 178.669 545.431 177.012C545.16 175.354 545.388 173.654 546.084 172.126C546.78 170.598 547.914 169.31 549.341 168.427C550.769 167.543 552.427 167.103 554.106 167.161C555.784 167.22 557.407 167.775 558.769 168.757C560.132 169.738 561.173 171.102 561.761 172.675C562.348 174.248 562.456 175.96 562.07 177.594C561.685 179.229 560.823 180.712 559.594 181.856C558.779 182.625 557.819 183.225 556.77 183.62C555.721 184.016 554.605 184.199 553.485 184.16C552.364 184.121 551.263 183.86 550.245 183.393C549.226 182.925 548.31 182.26 547.55 181.437H547.603Z" fill="#EBEBEB"/>
<path d="M419.84 383.55L406.274 374.169C404.944 369.284 403.115 364.549 400.816 360.039L404.293 346.394L384.613 325.324L370.758 327.856C366.411 325.252 361.808 323.102 357.021 321.44L348.598 307.257L319.734 306.273L310.367 319.839C305.488 321.168 300.757 322.993 296.25 325.284L282.605 321.807L261.534 341.487L264.066 355.316C261.465 359.671 259.319 364.283 257.664 369.079L243.481 377.502L242.497 406.366L256.076 415.733C257.384 420.645 259.209 425.403 261.521 429.929L258.005 443.456L277.685 464.527L291.448 462.008C295.827 464.615 300.46 466.769 305.276 468.437L313.686 482.593L342.55 483.59L351.905 470.024C356.828 468.695 361.602 466.866 366.153 464.566L379.719 468.03L400.803 448.35L398.271 434.521C400.88 430.166 403.026 425.548 404.673 420.745L418.856 412.322L419.84 383.55ZM330.034 427.358C323.626 427.139 317.427 425.025 312.221 421.283C307.014 417.541 303.034 412.339 300.784 406.336C298.534 400.332 298.114 393.796 299.578 387.554C301.042 381.312 304.324 375.644 309.009 371.267C313.695 366.89 319.572 364.001 325.899 362.964C332.226 361.928 338.719 362.79 344.556 365.443C350.393 368.096 355.312 372.42 358.691 377.869C362.071 383.317 363.759 389.646 363.542 396.053C363.241 404.647 359.542 412.771 353.257 418.64C346.972 424.509 338.615 427.645 330.02 427.358H330.034Z" fill="#EBEBEB"/>
<path d="M450.738 301.76H450.646L427.922 300.986C427.462 300.978 427.011 300.853 426.612 300.623C426.213 300.394 425.878 300.067 425.639 299.674L419.512 289.375C416.21 288.167 413.015 286.683 409.961 284.94L400.16 286.633C399.703 286.716 399.233 286.683 398.793 286.536C398.352 286.39 397.956 286.134 397.641 285.793L382.12 269.183C381.794 268.839 381.563 268.417 381.448 267.957C381.333 267.497 381.339 267.016 381.464 266.559L383.944 256.837C382.407 253.687 381.152 250.407 380.191 247.037L370.312 240.214C369.929 239.951 369.619 239.595 369.41 239.18C369.201 238.765 369.101 238.304 369.118 237.839L369.892 215.116C369.908 214.657 370.035 214.209 370.264 213.811C370.493 213.413 370.816 213.077 371.204 212.833L381.53 206.706C382.72 203.411 384.2 200.228 385.951 197.194L384.141 187.314C384.056 186.856 384.088 186.383 384.235 185.94C384.382 185.498 384.638 185.099 384.98 184.782L401.59 169.274C401.934 168.947 402.355 168.714 402.815 168.597C403.274 168.48 403.756 168.483 404.214 168.605L413.975 171.098C417.118 169.561 420.388 168.301 423.75 167.333L430.572 157.453C430.826 157.061 431.18 156.743 431.597 156.533C432.015 156.323 432.481 156.229 432.947 156.259L455.658 157.046C456.119 157.056 456.571 157.181 456.972 157.411C457.373 157.64 457.711 157.966 457.954 158.358L464.081 168.671C467.36 169.875 470.529 171.358 473.553 173.105L483.472 171.282C483.929 171.197 484.399 171.229 484.84 171.376C485.281 171.523 485.677 171.779 485.991 172.121L501.512 188.731C501.836 189.077 502.066 189.499 502.18 189.958C502.295 190.417 502.291 190.898 502.168 191.355L499.675 201.103C501.212 204.247 502.476 207.518 503.454 210.878L513.32 217.7C513.703 217.963 514.013 218.319 514.222 218.734C514.431 219.149 514.531 219.611 514.514 220.075L513.74 242.786C513.724 243.246 513.597 243.696 513.368 244.096C513.139 244.496 512.817 244.834 512.428 245.082L502.102 251.209C500.904 254.496 499.424 257.674 497.681 260.708L499.492 270.6C499.576 271.057 499.544 271.527 499.397 271.968C499.25 272.409 498.994 272.805 498.652 273.119L481.937 288.64C481.593 288.966 481.171 289.197 480.711 289.312C480.251 289.427 479.77 289.422 479.313 289.296L469.604 286.816C466.441 288.346 463.153 289.606 459.777 290.582L453.021 300.448C452.777 300.837 452.441 301.161 452.043 301.39C451.645 301.619 451.197 301.746 450.738 301.76ZM429.628 295.502L449.308 296.171L455.868 286.738C456.231 286.187 456.788 285.794 457.429 285.636C461.121 284.626 464.703 283.25 468.122 281.529C468.718 281.242 469.395 281.172 470.037 281.332L479.221 283.681L493.653 270.233L492 260.747C491.872 260.084 491.994 259.397 492.341 258.818C494.29 255.57 495.895 252.127 497.13 248.545C497.338 247.896 497.777 247.345 498.363 246.997L508.243 241.146L508.912 221.466L499.465 214.906C498.968 214.566 498.595 214.073 498.403 213.502C498.403 213.436 498.403 213.357 498.403 213.279C497.392 209.652 496.02 206.136 494.309 202.783C494.006 202.183 493.931 201.492 494.099 200.841L496.461 191.552L483.013 177.12L473.58 178.852C472.921 178.971 472.241 178.85 471.664 178.511C468.409 176.558 464.962 174.945 461.378 173.696C461.172 173.63 460.974 173.542 460.788 173.433C460.409 173.197 460.094 172.873 459.869 172.489L453.952 162.583L434.272 161.901L427.712 171.36C427.321 171.915 426.743 172.311 426.085 172.476C422.431 173.474 418.888 174.841 415.51 176.556C414.915 176.86 414.229 176.934 413.582 176.766L404.293 174.404L389.861 187.852L391.593 197.259C391.695 197.853 391.608 198.463 391.343 199.004L391.212 199.227C389.261 202.488 387.656 205.945 386.423 209.54C386.206 210.156 385.779 210.676 385.216 211.009L375.337 216.874L374.668 236.554L384.127 243.114C384.667 243.483 385.057 244.031 385.229 244.662C386.213 248.346 387.581 251.917 389.31 255.315C389.403 255.509 389.478 255.711 389.533 255.919C389.632 256.351 389.632 256.799 389.533 257.231L387.171 266.415L400.619 280.847L409.987 279.128C410.641 279.008 411.317 279.129 411.889 279.469C415.169 281.418 418.637 283.031 422.241 284.284C422.891 284.477 423.441 284.915 423.776 285.504L429.628 295.502ZM441.79 270.613C441.304 270.613 440.819 270.613 440.333 270.613C429.427 270.421 419.038 265.929 411.427 258.115C403.816 250.3 399.6 239.796 399.696 228.888C399.792 217.98 404.192 207.552 411.939 199.873C419.687 192.193 430.153 187.885 441.062 187.885C451.97 187.885 462.437 192.193 470.184 199.873C477.931 207.552 482.331 217.98 482.427 228.888C482.523 239.796 478.307 250.3 470.696 258.115C463.086 265.929 452.696 270.421 441.79 270.613ZM441.79 193.087C432.259 193.251 423.179 197.174 416.526 204.001C409.873 210.828 406.187 220.007 406.269 229.539C406.351 239.071 410.195 248.185 416.965 254.896C423.734 261.607 432.881 265.373 442.413 265.373C451.945 265.373 461.092 261.607 467.861 254.896C474.631 248.185 478.475 239.071 478.557 229.539C478.639 220.007 474.953 210.828 468.3 204.001C461.647 197.174 452.567 193.251 443.036 193.087H441.79Z" fill="#EBEBEB"/>
<path d="M503.073 138.18L493.653 135.661L491.134 126.241L494.821 122.567L498.704 130.61L506.76 134.506L503.073 138.18Z" fill="#E0E0E0"/>
<path d="M503.651 131.882C504.058 131.475 504.381 130.991 504.602 130.459C504.822 129.926 504.936 129.356 504.936 128.779C504.936 128.203 504.822 127.632 504.602 127.1C504.381 126.568 504.058 126.084 503.651 125.676C503.243 125.269 502.759 124.946 502.227 124.725C501.695 124.505 501.124 124.391 500.548 124.391C499.971 124.391 499.401 124.505 498.868 124.725C498.336 124.946 497.852 125.269 497.445 125.676L502.129 118.644L508.4 121.819L509.778 128.379L503.651 131.882Z" fill="#E0E0E0"/>
<path d="M494.073 123.328L500.974 116.427L510.368 118.933L512.9 128.34L505.999 135.241L496.592 132.709L494.073 123.328ZM506.603 128.97C507.217 128.355 507.635 127.572 507.804 126.719C507.973 125.867 507.886 124.983 507.553 124.18C507.221 123.377 506.657 122.691 505.934 122.209C505.212 121.726 504.362 121.468 503.493 121.468C502.624 121.468 501.774 121.726 501.052 122.209C500.329 122.691 499.766 123.377 499.433 124.18C499.1 124.983 499.013 125.867 499.182 126.719C499.351 127.572 499.769 128.355 500.384 128.97C501.215 129.785 502.334 130.24 503.498 130.235C504.663 130.23 505.778 129.766 506.603 128.943V128.97Z" fill="#F0F0F0"/>
<path d="M118.369 389.284L123.42 387.919L124.771 382.868L122.803 380.9L120.717 385.216L116.388 387.302L118.369 389.284Z" fill="#E0E0E0"/>
<path d="M118.08 385.899C117.685 385.448 117.477 384.864 117.496 384.265C117.516 383.666 117.763 383.097 118.187 382.673C118.611 382.249 119.18 382.002 119.779 381.983C120.378 381.963 120.962 382.171 121.412 382.566L118.907 378.801L115.456 380.48L114.721 384.022L118.08 385.899Z" fill="#E0E0E0"/>
<path d="M123.197 381.293L119.497 377.594L114.446 378.906L113.134 383.957L116.768 387.696L121.819 386.384L123.197 381.293ZM116.479 384.324C116.236 384.111 116.039 383.851 115.901 383.558C115.762 383.266 115.685 382.949 115.675 382.626C115.664 382.302 115.72 381.981 115.839 381.68C115.957 381.379 116.137 381.106 116.365 380.878C116.594 380.649 116.867 380.47 117.168 380.351C117.468 380.232 117.79 380.176 118.113 380.187C118.436 380.198 118.754 380.275 119.046 380.413C119.338 380.552 119.599 380.749 119.812 380.992C120.207 381.443 120.415 382.027 120.395 382.626C120.375 383.225 120.129 383.794 119.705 384.217C119.281 384.641 118.712 384.888 118.113 384.908C117.514 384.928 116.93 384.719 116.479 384.324Z" fill="#F0F0F0"/>
<path d="M100.184 112.386L104.383 116.584C104.908 117.1 105.615 117.389 106.351 117.389C107.087 117.389 107.794 117.1 108.319 116.584C108.832 116.058 109.119 115.351 109.119 114.616C109.119 113.881 108.832 113.175 108.319 112.648L104.133 108.463C103.607 107.95 102.901 107.663 102.165 107.663C101.43 107.663 100.724 107.95 100.197 108.463C99.6836 108.986 99.3946 109.689 99.3921 110.422C99.3897 111.155 99.674 111.86 100.184 112.386Z" fill="#F0F0F0"/>
<path d="M97.2323 101.956C98.3279 101.651 99.4885 101.673 100.572 102.019C101.655 102.364 102.614 103.019 103.33 103.902C104.047 104.785 104.49 105.858 104.605 106.989C104.72 108.121 104.502 109.261 103.978 110.27C103.455 111.279 102.647 112.114 101.656 112.671C100.665 113.228 99.5322 113.483 98.3977 113.405C97.2633 113.328 96.1762 112.92 95.2699 112.234C94.3637 111.547 93.6777 110.61 93.2963 109.539C93.0542 108.783 92.964 107.986 93.0309 107.195C93.0979 106.403 93.3207 105.633 93.6866 104.928C94.0524 104.224 94.554 103.598 95.1625 103.088C95.7711 102.578 96.4745 102.193 97.2323 101.956Z" fill="#E0E0E0"/>
<path d="M92.6664 108.836L93.274 110.528L105.745 106.048L105.137 104.356L92.6664 108.836Z" fill="#F0F0F0"/>
<path d="M328 560.959C468.492 560.959 582.384 554.309 582.384 546.107C582.384 537.904 468.492 531.255 328 531.255C187.508 531.255 73.6163 537.904 73.6163 546.107C73.6163 554.309 187.508 560.959 328 560.959Z" fill="#F5F5F5"/>
<path d="M113.777 158.293C112.465 152.507 113.042 147.652 115.535 143.69C118.028 139.728 122.095 137.13 127.881 135.818C133.667 134.506 138.665 135.031 142.575 137.471C146.485 139.912 149.135 144.031 150.447 149.673C151.373 153.155 151.45 156.809 150.67 160.326C149.907 163.248 148.296 165.878 146.039 167.883C143.358 170.14 140.141 171.668 136.697 172.318C133.322 173.214 129.788 173.335 126.359 172.672C123.378 171.948 120.682 170.349 118.618 168.08C116.151 165.314 114.479 161.932 113.777 158.293ZM124.719 155.852C125.532 159.421 126.779 161.835 128.458 163.095C129.325 163.673 130.3 164.069 131.324 164.261C132.348 164.453 133.4 164.435 134.417 164.21C135.435 163.984 136.396 163.555 137.243 162.949C138.09 162.342 138.806 161.571 139.348 160.681C140.292 158.857 140.305 155.957 139.413 152.008C138.652 148.676 137.423 146.393 135.726 145.16C134.872 144.546 133.891 144.133 132.856 143.949C131.82 143.765 130.757 143.815 129.744 144.097C128.73 144.287 127.772 144.704 126.942 145.318C126.113 145.931 125.433 146.725 124.955 147.639C123.984 149.568 123.892 152.192 124.719 155.852Z" fill="#263238"/>
<path d="M155.59 153.963C155.124 152.175 155.041 150.309 155.346 148.487C155.651 146.664 156.338 144.927 157.361 143.388C158.508 141.754 159.967 140.362 161.653 139.292C163.34 138.223 165.221 137.497 167.188 137.156C172.322 135.993 176.538 136.601 179.836 138.98C182.611 141.131 184.498 144.228 185.136 147.681C185.775 151.134 185.121 154.701 183.3 157.702C181.253 160.825 177.92 162.907 173.302 163.947C169.744 164.942 165.948 164.635 162.596 163.082C160.804 162.206 159.239 160.926 158.023 159.345C156.808 157.763 155.975 155.921 155.59 153.963ZM165.443 151.693C165.709 153.527 166.604 155.211 167.975 156.456C168.519 156.867 169.146 157.156 169.812 157.3C170.478 157.445 171.168 157.443 171.833 157.295C172.499 157.146 173.124 156.855 173.665 156.44C174.207 156.026 174.651 155.498 174.968 154.895C175.655 153.132 175.72 151.188 175.152 149.384C174.876 147.594 173.991 145.953 172.646 144.74C172.124 144.317 171.512 144.02 170.856 143.872C170.201 143.724 169.521 143.729 168.868 143.887C168.187 144.028 167.547 144.322 166.997 144.747C166.447 145.172 166.001 145.717 165.692 146.34C164.986 148.041 164.898 149.935 165.443 151.693Z" fill="#263238"/>
<path d="M194.937 168.684L186.894 133.26L196.078 131.161L196.944 134.952C197.592 133.44 198.533 132.071 199.713 130.924C201.007 129.826 202.553 129.064 204.213 128.707C205.747 128.29 207.361 128.266 208.906 128.637C210.452 129.009 211.879 129.764 213.056 130.833C215.649 133.257 217.408 136.439 218.081 139.925C219.052 144.189 218.763 147.679 217.241 150.421C216.517 151.732 215.517 152.87 214.309 153.756C213.102 154.641 211.716 155.254 210.248 155.551C208.834 155.886 207.368 155.944 205.932 155.721C204.554 155.48 203.241 154.957 202.074 154.186L204.856 166.427L194.937 168.684ZM199.673 143.939C199.914 145.578 200.733 147.077 201.982 148.164C202.483 148.548 203.065 148.813 203.683 148.94C204.301 149.067 204.939 149.053 205.551 148.899C206.119 148.785 206.653 148.539 207.108 148.181C207.564 147.824 207.93 147.364 208.175 146.839C208.733 145.197 208.733 143.417 208.175 141.775C207.935 140.128 207.144 138.611 205.932 137.471C205.482 137.098 204.952 136.832 204.383 136.696C203.814 136.559 203.222 136.555 202.652 136.684C202.049 136.814 201.483 137.079 200.997 137.458C200.511 137.838 200.117 138.322 199.844 138.875C199.202 140.492 199.141 142.283 199.673 143.939Z" fill="#263238"/>
<path d="M222.292 144.714L231.844 141.578C232.351 142.501 233.143 143.237 234.1 143.677C235.131 143.976 236.221 143.999 237.264 143.746C238.306 143.493 239.265 142.972 240.044 142.234C240.261 142.002 240.419 141.721 240.504 141.415C240.588 141.109 240.597 140.786 240.529 140.476C240.45 140.121 240.267 139.797 240.003 139.547C239.738 139.297 239.405 139.131 239.046 139.072C237.564 138.909 236.068 138.909 234.586 139.072C232.097 139.284 229.596 139.284 227.107 139.072C225.651 138.861 224.285 138.237 223.171 137.275C221.983 136.246 221.162 134.859 220.833 133.322C220.504 131.786 220.685 130.184 221.348 128.76C222.113 127.235 223.302 125.964 224.772 125.099C226.865 123.91 229.138 123.073 231.502 122.619C233.759 122.007 236.092 121.724 238.43 121.78C239.898 121.874 241.321 122.325 242.576 123.092C243.913 123.994 245.048 125.165 245.908 126.529L236.724 129.56C236.381 128.876 235.81 128.334 235.11 128.025C234.153 127.683 233.115 127.637 232.132 127.894C231.263 128.015 230.457 128.416 229.836 129.035C229.639 129.246 229.496 129.503 229.421 129.782C229.345 130.061 229.339 130.354 229.403 130.636C229.474 130.946 229.638 131.227 229.872 131.443C230.106 131.658 230.4 131.798 230.715 131.843C232.182 132.013 233.665 131.982 235.124 131.751C237.653 131.384 240.22 131.349 242.759 131.646C244.357 131.872 245.853 132.56 247.063 133.627C248.157 134.619 248.917 135.925 249.241 137.366C249.577 138.912 249.454 140.522 248.886 141.998C248.193 143.745 246.985 145.241 245.423 146.288C243.122 147.792 240.543 148.823 237.839 149.319C233.16 150.386 229.661 150.478 227.343 149.594C225.085 148.692 223.271 146.94 222.292 144.714Z" fill="#263238"/>
<path d="M254.331 112.268H265.103V120.533L263.122 137.156H256.457L254.331 120.56V112.268ZM254.856 139.662H264.906V148.558H254.856V139.662Z" fill="#263238"/>
<path d="M168.828 225.113H168.592C162.688 222.817 159.159 220.587 157.322 217.897C155.884 218.169 154.397 217.967 153.084 217.32C151.547 216.567 150.271 215.369 149.424 213.882C148.978 214.224 148.454 214.448 147.899 214.533C147.343 214.618 146.776 214.561 146.249 214.368C144.632 213.763 143.252 212.654 142.313 211.206C141.725 211.643 140.995 211.845 140.266 211.77C136.33 211.455 131.082 203.688 130.701 195.422C130.698 195.248 130.761 195.079 130.878 194.949C130.995 194.82 131.157 194.74 131.331 194.727C131.417 194.724 131.503 194.737 131.584 194.767C131.665 194.797 131.74 194.842 131.803 194.9C131.866 194.959 131.917 195.029 131.954 195.108C131.99 195.186 132.01 195.271 132.013 195.357C132.381 203.229 137.406 210.222 140.384 210.458C140.601 210.482 140.82 210.464 141.029 210.403C141.239 210.342 141.434 210.24 141.604 210.104C140.578 208.233 139.934 206.177 139.708 204.056C139.483 201.934 139.682 199.789 140.292 197.745C141.42 193.809 142.418 192.26 143.625 192.497C145.881 193.061 145.58 201.681 144.386 207.309C144.205 208.324 143.831 209.295 143.284 210.169C144.057 211.466 145.225 212.482 146.616 213.069C146.987 213.21 147.39 213.242 147.779 213.16C148.167 213.079 148.524 212.888 148.807 212.61C147.784 210.077 147.495 206.614 148.964 202.205C150.801 196.393 151.588 196.236 151.995 196.131C152.148 196.099 152.307 196.109 152.455 196.159C152.603 196.21 152.734 196.3 152.835 196.42C154.055 197.797 152.599 206.824 151.077 211.284C150.899 211.821 150.652 212.333 150.342 212.806C151.046 214.225 152.193 215.377 153.609 216.086C154.538 216.538 155.571 216.733 156.6 216.651C156.482 216.401 156.377 216.152 156.272 215.89C155.236 213.069 155.748 209.828 157.834 205.945C159.211 203.386 160.34 202.179 161.389 202.179C161.668 202.183 161.939 202.266 162.172 202.42C162.405 202.573 162.588 202.79 162.701 203.045C163.843 205.157 163.016 212.124 160.759 215.588C160.231 216.382 159.496 217.017 158.634 217.425C160.392 219.734 163.738 221.767 169.13 223.84C169.211 223.869 169.285 223.915 169.348 223.973C169.411 224.031 169.462 224.102 169.498 224.18C169.533 224.258 169.552 224.343 169.555 224.429C169.557 224.515 169.542 224.6 169.51 224.68C169.459 224.817 169.365 224.933 169.242 225.011C169.119 225.089 168.974 225.125 168.828 225.113ZM161.376 203.504C161.376 203.504 160.628 203.504 158.975 206.588C157.073 210.104 156.587 213.003 157.492 215.444C157.602 215.746 157.734 216.039 157.886 216.323C158.597 216.029 159.201 215.525 159.618 214.879C161.455 212.072 162.334 206.299 161.652 204.042C161.56 203.583 161.376 203.504 161.376 203.504ZM151.956 197.981C151.246 199.475 150.658 201.023 150.198 202.612C149.192 205.366 149.018 208.354 149.699 211.206L149.817 210.865C151.195 206.706 151.929 202.361 151.995 197.981H151.956ZM143.323 193.848C143.1 194.045 142.457 194.871 141.552 198.073C140.481 201.665 140.819 205.531 142.496 208.884C142.766 208.297 142.964 207.68 143.087 207.047C144.491 200.605 144.097 194.78 143.362 193.848H143.323Z" fill="#263238"/>
<path d="M218.71 293.888C216.613 293.908 214.548 293.369 212.728 292.327C212.578 292.237 212.469 292.091 212.425 291.922C212.381 291.753 212.405 291.573 212.492 291.421C212.535 291.347 212.592 291.283 212.661 291.231C212.729 291.18 212.808 291.143 212.891 291.122C212.974 291.101 213.06 291.097 213.145 291.111C213.23 291.124 213.311 291.153 213.384 291.198C218.068 293.94 224.116 292.025 225.362 290.018C225.452 289.892 225.516 289.749 225.55 289.598C225.584 289.447 225.587 289.291 225.559 289.139C223.164 289.276 220.792 288.601 218.828 287.223C215.483 285.137 215.22 284.507 215.247 284.009C215.253 283.865 215.298 283.726 215.376 283.606C215.455 283.486 215.564 283.39 215.693 283.326C217.005 282.67 222.922 285.386 225.388 287.013C225.684 287.21 225.957 287.438 226.202 287.695C227.171 287.476 228.045 286.951 228.695 286.2C229.061 285.77 229.325 285.263 229.469 284.717H229.206C227.107 284.927 225.008 284.022 222.764 281.949C221.216 280.532 220.626 279.548 220.823 278.774C220.882 278.556 221.003 278.36 221.17 278.209C221.338 278.058 221.545 277.958 221.767 277.921C223.578 277.462 228.065 279.377 229.889 281.385C230.295 281.821 230.584 282.354 230.728 282.933C232.447 282.132 234.258 280.309 236.396 277.331C236.446 277.26 236.509 277.199 236.582 277.153C236.656 277.107 236.737 277.075 236.823 277.06C236.908 277.046 236.995 277.048 237.08 277.068C237.164 277.087 237.244 277.123 237.315 277.173C237.455 277.276 237.55 277.429 237.579 277.6C237.609 277.772 237.57 277.948 237.472 278.092C234.992 281.555 232.919 283.523 230.846 284.324C230.739 285.293 230.341 286.208 229.705 286.948C228.949 287.826 227.956 288.468 226.845 288.797C226.907 289.111 226.907 289.433 226.844 289.746C226.781 290.059 226.656 290.357 226.477 290.621C225.375 292.497 222.2 293.888 218.71 293.888ZM217.543 284.783C217.989 285.111 218.619 285.544 219.524 286.095C220.935 287.046 222.556 287.641 224.247 287.827C222.135 286.56 219.886 285.539 217.543 284.783ZM222.122 279.207C222.499 279.916 223.022 280.538 223.657 281.03C225.598 282.828 227.37 283.654 229.075 283.444H229.495C229.402 283.037 229.203 282.661 228.918 282.356C227.081 280.283 223.04 278.997 222.122 279.207Z" fill="#263238"/>
<path d="M236.081 292.091L215.64 295.803L197.076 194.491L157.637 201.654L93.3488 315.798L100.25 353.466L182.709 338.496L188.351 369.302L227.789 362.112L222.148 331.306L242.589 327.593L236.081 292.091ZM132.63 310.944L166.742 251.156L176.254 303.033L132.63 310.944Z" fill="#FF8BA7"/>
<path d="M400.724 187.616C400.103 181.247 398.693 174.98 396.526 168.959C394.296 163.192 391.199 157.799 387.342 152.966C382.775 147.344 377.104 142.718 370.679 139.374C363.682 135.534 354.402 132.862 342.839 131.357C318.829 128.226 300.12 132.486 286.711 144.136C273.303 155.787 264.469 178.091 260.209 211.048C258.508 223.365 258.069 235.824 258.897 248.23C259.772 259.601 261.862 268.754 265.168 275.691C269.376 285.044 276.013 293.099 284.389 299.018C292.672 304.834 304.043 308.679 318.501 310.55C344.199 313.9 363.253 308.963 375.665 295.738C388.076 282.513 396.298 260.165 400.331 228.695C402.123 215.068 402.255 201.274 400.724 187.616Z" fill="#FF8BA7"/>
<path d="M330.322 297.076C327.16 296.971 323.762 296.682 320.338 296.236C308.32 294.675 299.031 291.631 292.707 287.197C286.401 282.744 281.414 276.669 278.275 269.616L278.21 269.472C275.691 264.224 274.037 256.68 273.316 247.168C272.551 235.742 272.956 224.268 274.523 212.924C279.207 176.556 288.876 161.376 296.158 155.052C304.66 147.679 316.14 144.346 331.228 144.871C334.324 144.976 337.604 145.251 340.976 145.684C350.658 146.996 358.333 149.096 363.765 152.061C368.459 154.478 372.614 157.821 375.98 161.888C378.925 165.561 381.292 169.662 382.999 174.05C384.742 178.942 385.87 184.033 386.358 189.203C387.757 201.733 387.629 214.386 385.977 226.884C382.343 255.145 375.311 275.008 365.09 285.924C357.507 294.006 346.132 297.732 330.309 297.129L330.322 297.076Z" fill="#263238"/>
<path d="M355.998 187.996L356.169 183.024L353.112 182.027C352.981 180.345 352.709 178.677 352.298 177.041L354.922 175.126L353.164 170.455L349.963 170.717C349.21 169.216 348.332 167.781 347.339 166.427L348.992 163.659L345.581 160.025L342.721 161.494C341.441 160.394 340.072 159.402 338.627 158.529L339.086 155.354L334.547 153.294L332.474 155.734C330.869 155.214 329.223 154.828 327.554 154.58L326.78 151.47L321.794 151.3L320.81 154.344C319.129 154.478 317.462 154.75 315.825 155.157L313.896 152.533L309.225 154.278L309.488 157.479C307.987 158.233 306.552 159.11 305.197 160.103L302.442 158.437L298.795 161.835L300.264 164.708C299.161 165.987 298.173 167.362 297.312 168.815L294.137 168.33L292.064 172.869L294.518 174.942C293.985 176.548 293.599 178.199 293.363 179.875L290.241 180.662L290.07 185.622L293.127 186.619C293.255 188.305 293.527 189.978 293.94 191.618L291.316 193.52L293.075 198.191L296.276 197.928C297.021 199.434 297.899 200.869 298.9 202.219L297.234 204.987L300.645 208.621L303.505 207.165C304.785 208.261 306.154 209.248 307.598 210.117L307.126 213.292L311.666 215.352L313.752 212.924C315.361 213.442 317.011 213.824 318.685 214.066L319.459 217.188L324.431 217.359L325.415 214.302C327.102 214.174 328.774 213.902 330.414 213.489L332.316 216.113L336.987 214.368L336.738 211.179C338.233 210.416 339.668 209.539 341.028 208.555L343.783 210.209L347.431 206.811L345.974 203.937C347.074 202.663 348.057 201.293 348.913 199.844L352.088 200.316L354.161 195.777L351.721 193.704C352.243 192.1 352.625 190.454 352.862 188.784L355.998 187.996ZM322.411 204.095C318.525 203.953 314.768 202.663 311.615 200.388C308.461 198.112 306.052 194.954 304.692 191.311C303.332 187.668 303.082 183.704 303.973 179.919C304.864 176.134 306.856 172.697 309.698 170.043C312.541 167.39 316.105 165.637 319.943 165.008C323.78 164.378 327.718 164.899 331.259 166.505C334.8 168.112 337.786 170.731 339.84 174.033C341.894 177.335 342.924 181.171 342.799 185.058C342.716 187.648 342.123 190.197 341.052 192.557C339.981 194.918 338.455 197.043 336.56 198.812C334.666 200.581 332.441 201.958 330.013 202.865C327.584 203.771 325.001 204.189 322.411 204.095Z" fill="#FF8BA7"/>
<path opacity="0.3" d="M376.701 279.285L377.069 275.927L375.048 275.113C375.045 273.97 374.949 272.829 374.76 271.702L376.583 270.534L375.652 267.294H373.474C373.043 266.24 372.521 265.226 371.913 264.263L373.146 262.479L371.047 259.855L369.039 260.694C368.226 259.89 367.348 259.153 366.415 258.49L366.901 256.365L363.949 254.738L362.401 256.299C361.346 255.865 360.258 255.519 359.147 255.263L358.779 253.124L355.434 252.744L354.607 254.764C353.468 254.769 352.331 254.875 351.209 255.079L350.042 253.216L346.801 254.174V256.352C345.747 256.787 344.733 257.314 343.77 257.926L341.986 256.614L339.362 258.713L340.202 260.721C339.402 261.535 338.669 262.412 338.011 263.345L335.885 262.872L334.271 265.824L335.82 267.359C335.38 268.416 335.033 269.509 334.783 270.626L332.631 270.98L332.277 274.326L334.284 275.166C334.285 276.301 334.386 277.433 334.586 278.551L332.736 279.718L333.681 282.959H335.872C336.31 284.008 336.837 285.017 337.446 285.977L336.134 287.761L338.234 290.385L340.267 289.532C341.075 290.339 341.953 291.073 342.891 291.723L342.432 293.888L345.384 295.502L346.919 293.967C347.975 294.39 349.063 294.728 350.173 294.977L350.553 297.129L353.899 297.496L354.712 295.489C355.873 295.487 357.031 295.39 358.176 295.2L359.344 297.05L362.571 296.105V293.927C363.626 293.484 364.644 292.958 365.615 292.353L367.373 293.665L369.997 291.553L369.144 289.545C369.953 288.732 370.694 287.854 371.362 286.921L373.474 287.394L375.101 284.442L373.553 282.92C373.974 281.863 374.312 280.775 374.563 279.666L376.701 279.285ZM359.816 277.973C359.261 278.989 358.417 279.818 357.391 280.354C356.365 280.89 355.203 281.109 354.052 280.985C352.901 280.86 351.813 280.397 350.925 279.654C350.038 278.911 349.39 277.921 349.065 276.81C348.74 275.699 348.752 274.517 349.099 273.412C349.446 272.308 350.113 271.331 351.015 270.606C351.918 269.881 353.015 269.44 354.168 269.338C355.321 269.237 356.479 269.479 357.494 270.036C358.851 270.784 359.857 272.038 360.292 273.526C360.727 275.013 360.556 276.612 359.816 277.973Z" fill="#FF8BA7"/>
<path d="M395.293 222.581L391.357 219.878C390.969 218.473 390.442 217.111 389.782 215.811L390.779 211.875L385.111 205.8L381.175 206.535C379.927 205.792 378.609 205.172 377.239 204.685L374.812 200.592L366.507 200.316L363.805 204.252C362.398 204.634 361.034 205.161 359.737 205.827L355.801 204.816L349.727 210.497L350.461 214.433C349.707 215.676 349.087 216.996 348.612 218.369L344.531 220.796L344.243 229.101L348.179 231.804C348.56 233.22 349.088 234.591 349.753 235.898L348.756 239.834L354.424 245.908L358.36 245.187C359.609 245.929 360.927 246.548 362.296 247.036L364.71 251.117L373.028 251.405L375.717 247.469C377.136 247.084 378.512 246.557 379.824 245.895L383.76 246.892L389.835 241.224L389.113 237.288C389.859 236.041 390.478 234.722 390.963 233.352L395.043 230.925L395.293 222.581ZM369.407 235.202C367.56 235.139 365.774 234.529 364.274 233.451C362.774 232.372 361.627 230.873 360.979 229.142C360.331 227.412 360.211 225.529 360.633 223.73C361.056 221.931 362.002 220.298 363.353 219.038C364.704 217.777 366.398 216.945 368.221 216.647C370.045 216.349 371.916 216.599 373.597 217.364C375.279 218.13 376.696 219.377 377.669 220.948C378.642 222.518 379.127 224.342 379.063 226.189C378.974 228.663 377.908 231.002 376.098 232.691C374.288 234.381 371.881 235.284 369.407 235.202Z" fill="white"/>
<path d="M423.776 156.285L424.458 154.645C424.922 154.384 425.361 154.081 425.77 153.74H427.292L429.076 151.116L428.499 149.712C428.72 149.245 428.896 148.757 429.024 148.256L430.336 147.049L429.785 143.966L428.132 143.283C427.873 142.818 427.57 142.379 427.227 141.971V140.45L424.668 138.665L423.251 139.256C422.733 139.073 422.196 138.95 421.651 138.888L420.444 137.576L417.373 138.127L416.678 139.78C416.191 140.033 415.73 140.332 415.3 140.673H413.792L412.007 143.297L412.585 144.7C412.408 145.22 412.285 145.756 412.217 146.301L410.905 147.521L411.456 150.591L413.109 151.274C413.36 151.741 413.659 152.181 414.002 152.586V154.094L416.626 155.879L418.029 155.301C418.554 155.472 419.095 155.591 419.643 155.656L420.85 156.968L423.776 156.285ZM417.216 147.784C417.092 147.099 417.174 146.393 417.451 145.755C417.728 145.117 418.189 144.576 418.774 144.199C419.359 143.823 420.043 143.629 420.738 143.641C421.434 143.653 422.11 143.872 422.682 144.269C423.253 144.666 423.694 145.223 423.948 145.87C424.203 146.518 424.259 147.226 424.111 147.906C423.963 148.586 423.616 149.206 423.115 149.689C422.614 150.172 421.981 150.495 421.296 150.618C420.38 150.778 419.437 150.571 418.673 150.04C417.909 149.509 417.385 148.698 417.216 147.784Z" fill="#FF8BA7"/>
<path d="M387.84 147.587L386.83 146.734C388.995 144.049 391.671 141.819 394.702 140.174L395.319 141.329C392.436 142.898 389.894 145.026 387.84 147.587Z" fill="#FF8BA7"/>
<path d="M398.31 140.122L397.798 138.915C402.643 136.809 407.941 135.961 413.201 136.448L413.07 137.76C408.03 137.285 402.951 138.097 398.31 140.122Z" fill="#FF8BA7"/>
<path d="M395.83 149.201L394.755 148.466C397.915 144.197 402.516 141.219 407.704 140.082L407.953 141.394C403.105 142.453 398.801 145.225 395.83 149.201Z" fill="#FF8BA7"/>
<path d="M308.766 275.52C308.587 275.515 308.418 275.439 308.294 275.31L305.552 272.476C304.154 272.349 302.77 272.095 301.419 271.715L297.129 273.604C297.034 273.656 296.928 273.683 296.82 273.683C296.713 273.683 296.607 273.656 296.512 273.604L289.322 268.842C289.23 268.781 289.154 268.697 289.104 268.598C289.053 268.499 289.029 268.389 289.034 268.278V263.607C288.156 262.509 287.383 261.332 286.724 260.091L283.038 258.674C282.935 258.634 282.843 258.568 282.772 258.483C282.701 258.399 282.652 258.297 282.631 258.188L280.925 249.739C280.903 249.631 280.908 249.519 280.94 249.414C280.972 249.308 281.03 249.213 281.109 249.136L283.943 246.394C284.079 244.997 284.333 243.614 284.704 242.261L282.815 237.97C282.763 237.876 282.736 237.77 282.736 237.662C282.736 237.554 282.763 237.448 282.815 237.354L287.577 230.164C287.636 230.069 287.72 229.993 287.819 229.942C287.919 229.891 288.03 229.868 288.141 229.875L292.812 229.941C293.907 229.059 295.084 228.286 296.328 227.632L297.758 223.945C297.796 223.843 297.859 223.752 297.942 223.681C298.025 223.61 298.124 223.561 298.231 223.538L306.68 221.833C306.788 221.809 306.9 221.813 307.006 221.846C307.112 221.878 307.207 221.937 307.284 222.017L310.026 224.85C311.428 224.978 312.815 225.233 314.172 225.611L318.449 223.722C318.546 223.67 318.654 223.643 318.764 223.643C318.873 223.643 318.981 223.67 319.078 223.722L326.255 228.485C326.346 228.548 326.421 228.633 326.473 228.731C326.526 228.829 326.554 228.938 326.557 229.049L326.478 233.72C327.36 234.817 328.137 235.994 328.8 237.236L332.474 238.666C332.576 238.704 332.667 238.767 332.738 238.849C332.809 238.932 332.858 239.031 332.881 239.138L334.599 247.587C334.62 247.695 334.613 247.807 334.581 247.912C334.549 248.017 334.493 248.113 334.416 248.191L331.569 250.946C331.438 252.339 331.183 253.718 330.808 255.066L332.697 259.356C332.749 259.453 332.776 259.561 332.776 259.671C332.776 259.781 332.749 259.889 332.697 259.986L328 267.11C327.938 267.199 327.856 267.272 327.76 267.322C327.664 267.373 327.557 267.399 327.449 267.399L322.765 267.333C321.667 268.203 320.495 268.976 319.262 269.642L317.832 273.329C317.793 273.433 317.728 273.525 317.643 273.596C317.558 273.667 317.456 273.715 317.347 273.736L308.897 275.52H308.766ZM301.38 270.272C301.44 270.26 301.503 270.26 301.563 270.272C302.98 270.685 304.435 270.953 305.906 271.072C306.063 271.091 306.211 271.16 306.326 271.269L308.95 274.024L316.691 272.463L318.081 268.868C318.146 268.723 318.256 268.603 318.396 268.527C319.707 267.849 320.942 267.036 322.083 266.1C322.203 265.998 322.358 265.946 322.516 265.955L327.068 266.021L331.424 259.461L329.588 255.289C329.535 255.145 329.535 254.987 329.588 254.843C329.993 253.424 330.261 251.97 330.388 250.5C330.401 250.341 330.471 250.192 330.585 250.08L333.34 247.456L331.779 239.715L328.197 238.325C328.043 238.269 327.916 238.156 327.843 238.01C327.162 236.701 326.348 235.466 325.415 234.323C325.322 234.203 325.271 234.055 325.271 233.903V229.338L318.711 224.982L314.552 226.818C314.404 226.872 314.241 226.872 314.093 226.818C312.671 226.408 311.212 226.14 309.737 226.018C309.579 226 309.432 225.931 309.317 225.821L306.693 223.066L298.952 224.641L297.575 228.288C297.52 228.438 297.413 228.564 297.273 228.642C295.957 229.318 294.717 230.132 293.573 231.069C293.517 231.121 293.45 231.16 293.378 231.185C293.306 231.209 293.229 231.219 293.153 231.214L288.601 231.148L284.232 237.708L286.068 241.88C286.11 241.968 286.132 242.065 286.132 242.162C286.132 242.26 286.11 242.356 286.068 242.444C285.68 243.829 285.425 245.248 285.308 246.682C285.295 246.841 285.225 246.991 285.111 247.102L282.356 249.726L283.93 257.467L287.499 258.858C287.658 258.924 287.788 259.045 287.866 259.199C288.542 260.499 289.351 261.725 290.28 262.859C290.377 262.977 290.429 263.126 290.424 263.279V267.845L296.984 272.201L301.156 270.364C301.225 270.32 301.3 270.289 301.38 270.272ZM307.821 266.021C304.663 266.018 301.565 265.16 298.856 263.537C296.147 261.914 293.928 259.587 292.436 256.804C290.944 254.021 290.233 250.886 290.38 247.731C290.527 244.577 291.526 241.521 293.271 238.889C294.94 236.364 297.236 234.315 299.934 232.943C302.632 231.571 305.64 230.923 308.664 231.062C311.688 231.2 314.623 232.122 317.184 233.735C319.745 235.349 321.844 237.599 323.274 240.267C324.705 242.934 325.418 245.927 325.345 248.953C325.272 251.979 324.415 254.935 322.858 257.53C321.301 260.126 319.096 262.273 316.461 263.761C313.825 265.249 310.848 266.028 307.821 266.021ZM294.373 239.61C292.607 242.275 291.671 245.403 291.683 248.6C291.695 251.796 292.654 254.918 294.44 257.569C296.225 260.221 298.757 262.283 301.714 263.496C304.672 264.708 307.923 265.017 311.056 264.382C314.189 263.748 317.063 262.198 319.316 259.93C321.568 257.662 323.098 254.777 323.711 251.64C324.324 248.502 323.992 245.254 322.759 242.305C321.526 239.355 319.446 236.838 316.782 235.071C315.016 233.889 313.033 233.068 310.947 232.656C308.862 232.244 306.715 232.249 304.632 232.671C302.549 233.093 300.569 233.924 298.809 235.115C297.048 236.306 295.541 237.834 294.373 239.61Z" fill="white"/>
<path d="M558.689 303.925L538.091 301.143L551.709 199.057L511.982 193.704L415.615 282.421L410.551 320.377L493.587 331.582L489.442 362.637L529.169 367.99L533.315 336.948L553.913 339.729L558.689 303.925ZM454.49 289.86L505.343 243.507L498.363 295.777L454.49 289.86Z" fill="#FF8BA7"/>
<path d="M517.099 367.019H516.928C516.758 366.987 516.607 366.889 516.509 366.747C516.411 366.604 516.373 366.428 516.403 366.258L547.104 198.401C547.139 198.232 547.238 198.083 547.379 197.986C547.521 197.888 547.695 197.849 547.865 197.876C548.035 197.908 548.186 198.006 548.284 198.148C548.382 198.291 548.42 198.466 548.39 198.637L517.755 366.481C517.724 366.633 517.642 366.769 517.523 366.867C517.403 366.965 517.253 367.019 517.099 367.019Z" fill="#263238"/>
<path d="M544.257 201.221C544.247 201.507 544.123 201.776 543.914 201.971C543.705 202.165 543.427 202.268 543.142 202.258C542.856 202.247 542.587 202.124 542.393 201.915C542.198 201.706 542.095 201.428 542.105 201.143C542.116 200.857 542.239 200.588 542.448 200.393C542.657 200.199 542.935 200.096 543.22 200.106C543.506 200.117 543.775 200.24 543.97 200.449C544.164 200.658 544.267 200.936 544.257 201.221Z" fill="#263238"/>
<path d="M539.888 223.919C539.88 224.132 539.809 224.337 539.685 224.509C539.56 224.682 539.387 224.813 539.188 224.887C538.988 224.961 538.771 224.975 538.564 224.926C538.357 224.877 538.17 224.767 538.025 224.611C537.88 224.456 537.785 224.26 537.751 224.05C537.717 223.84 537.746 223.625 537.835 223.431C537.923 223.238 538.067 223.075 538.248 222.963C538.429 222.852 538.639 222.796 538.852 222.804C538.993 222.809 539.132 222.842 539.26 222.901C539.389 222.959 539.505 223.043 539.601 223.147C539.697 223.25 539.772 223.372 539.821 223.504C539.871 223.637 539.893 223.778 539.888 223.919Z" fill="#263238"/>
<path d="M535.519 246.656C535.514 246.797 535.481 246.936 535.422 247.065C535.363 247.193 535.28 247.309 535.176 247.405C535.073 247.502 534.951 247.577 534.819 247.626C534.686 247.675 534.545 247.698 534.404 247.692C534.263 247.689 534.124 247.658 533.996 247.6C533.867 247.543 533.752 247.461 533.655 247.358C533.559 247.256 533.484 247.135 533.434 247.003C533.385 246.871 533.362 246.731 533.367 246.59C533.371 246.448 533.402 246.308 533.46 246.177C533.519 246.047 533.602 245.93 533.706 245.832C533.809 245.735 533.931 245.659 534.065 245.609C534.198 245.559 534.34 245.536 534.483 245.541C534.767 245.554 535.034 245.679 535.228 245.887C535.422 246.096 535.526 246.372 535.519 246.656Z" fill="#263238"/>
<path d="M526.912 270.272C526.883 270.535 526.758 270.778 526.561 270.955C526.363 271.132 526.108 271.229 525.843 271.229C525.578 271.229 525.323 271.132 525.126 270.955C524.928 270.778 524.803 270.535 524.774 270.272C524.757 270.122 524.772 269.969 524.818 269.825C524.865 269.681 524.941 269.549 525.042 269.436C525.142 269.323 525.266 269.233 525.404 269.171C525.542 269.109 525.692 269.078 525.843 269.078C525.994 269.078 526.144 269.109 526.282 269.171C526.42 269.233 526.544 269.323 526.645 269.436C526.746 269.549 526.822 269.681 526.868 269.825C526.914 269.969 526.929 270.122 526.912 270.272Z" fill="#263238"/>
<path d="M526.768 292.012C526.765 292.154 526.733 292.293 526.675 292.423C526.617 292.552 526.533 292.669 526.429 292.765C526.325 292.862 526.203 292.937 526.07 292.985C525.936 293.034 525.795 293.055 525.653 293.048C525.44 293.04 525.235 292.97 525.062 292.845C524.89 292.72 524.759 292.547 524.684 292.348C524.61 292.149 524.597 291.932 524.646 291.725C524.695 291.518 524.805 291.33 524.96 291.185C525.116 291.04 525.312 290.945 525.522 290.911C525.732 290.877 525.947 290.906 526.14 290.995C526.334 291.083 526.497 291.227 526.608 291.408C526.72 291.589 526.776 291.799 526.768 292.012Z" fill="#263238"/>
<path d="M522.399 314.709C522.394 314.923 522.325 315.13 522.202 315.304C522.079 315.478 521.907 315.611 521.707 315.688C521.508 315.764 521.291 315.779 521.083 315.731C520.875 315.683 520.686 315.575 520.54 315.42C520.394 315.264 520.297 315.069 520.262 314.858C520.227 314.648 520.256 314.432 520.344 314.238C520.432 314.044 520.576 313.88 520.757 313.768C520.939 313.655 521.149 313.6 521.363 313.607C521.646 313.618 521.913 313.739 522.107 313.945C522.301 314.152 522.406 314.426 522.399 314.709Z" fill="#263238"/>
<path d="M518.03 337.407C518.02 337.694 517.897 337.964 517.688 338.161C517.479 338.357 517.201 338.464 516.915 338.457C516.774 338.452 516.635 338.419 516.506 338.36C516.377 338.301 516.262 338.217 516.165 338.114C516.069 338.01 515.994 337.889 515.945 337.756C515.896 337.624 515.873 337.483 515.878 337.341C515.883 337.2 515.915 337.061 515.973 336.932C516.031 336.803 516.114 336.687 516.217 336.59C516.32 336.493 516.441 336.418 516.573 336.368C516.705 336.318 516.846 336.294 516.987 336.298C517.128 336.303 517.267 336.335 517.396 336.393C517.525 336.451 517.641 336.534 517.738 336.637C517.835 336.74 517.911 336.861 517.961 336.993C518.011 337.125 518.034 337.266 518.03 337.407Z" fill="#263238"/>
<path d="M513.648 360.118C513.64 360.33 513.569 360.536 513.445 360.708C513.32 360.88 513.147 361.012 512.948 361.086C512.748 361.16 512.531 361.174 512.324 361.124C512.117 361.075 511.93 360.966 511.785 360.81C511.64 360.654 511.545 360.459 511.511 360.249C511.477 360.039 511.506 359.824 511.595 359.63C511.683 359.437 511.827 359.274 512.008 359.162C512.189 359.05 512.399 358.995 512.612 359.003C512.753 359.006 512.893 359.038 513.023 359.096C513.152 359.154 513.268 359.238 513.365 359.341C513.462 359.445 513.536 359.568 513.585 359.701C513.634 359.834 513.655 359.976 513.648 360.118Z" fill="#263238"/>
<path d="M525.837 270.862C525.689 270.862 525.545 270.812 525.431 270.718C525.316 270.625 525.237 270.495 525.207 270.351C525.187 270.266 525.185 270.179 525.2 270.093C525.214 270.008 525.246 269.926 525.292 269.853C525.338 269.78 525.399 269.717 525.47 269.667C525.541 269.617 525.621 269.582 525.705 269.564L528.959 268.868C529.044 268.849 529.133 268.847 529.219 268.862C529.305 268.878 529.387 268.91 529.46 268.958C529.534 269.006 529.597 269.068 529.646 269.14C529.695 269.213 529.729 269.294 529.746 269.38C529.764 269.464 529.764 269.551 529.748 269.636C529.731 269.72 529.698 269.801 529.651 269.873C529.603 269.945 529.542 270.007 529.471 270.055C529.399 270.103 529.319 270.137 529.235 270.154L525.981 270.849L525.837 270.862Z" fill="#263238"/>
<path d="M536.713 258.779C535.165 262.793 533.851 266.893 532.777 271.059C531.793 275.69 531.74 286.055 531.74 286.055" fill="#263238"/>
<path d="M531.741 286.711C531.566 286.705 531.401 286.632 531.279 286.507C531.157 286.383 531.088 286.216 531.085 286.042C531.085 285.622 531.163 275.546 532.147 270.928C533.215 266.726 534.529 262.59 536.083 258.543C536.109 258.456 536.153 258.376 536.212 258.308C536.27 258.239 536.343 258.183 536.424 258.144C536.505 258.104 536.593 258.082 536.683 258.078C536.774 258.074 536.864 258.089 536.948 258.122C537.032 258.154 537.108 258.204 537.172 258.267C537.237 258.331 537.287 258.407 537.32 258.491C537.354 258.575 537.369 258.665 537.367 258.755C537.364 258.845 537.342 258.934 537.303 259.015C535.757 262.998 534.443 267.068 533.367 271.204C532.41 275.717 532.344 285.95 532.331 286.055C532.332 286.219 532.272 286.376 532.163 286.497C532.053 286.619 531.903 286.695 531.741 286.711Z" fill="#263238"/>
<path d="M291.854 399.95C293.678 370.561 290.332 317.124 345.581 324.208C404.791 331.779 387.853 401.026 387.853 401.026L291.854 399.95Z" fill="#263238"/>
<path d="M329.981 382.291C343.299 382.291 354.096 371.494 354.096 358.176C354.096 344.858 343.299 334.062 329.981 334.062C316.663 334.062 305.867 344.858 305.867 358.176C305.867 371.494 316.663 382.291 329.981 382.291Z" fill="white"/>
<path d="M333.156 334.101C321.729 332.159 309.54 340.569 308.32 349.097L353.597 353.269C351.996 343.547 342.209 335.649 333.156 334.101Z" fill="#263238"/>
<path d="M348.441 357.573C348.113 363.883 344.676 368.829 340.766 368.62C336.856 368.41 333.943 363.149 334.206 356.812C334.468 350.475 337.971 345.555 341.881 345.765C345.791 345.974 348.756 351.275 348.441 357.573Z" fill="#263238"/>
<path d="M329.981 383.603C324.952 383.603 320.036 382.111 315.855 379.318C311.673 376.524 308.415 372.553 306.49 367.906C304.566 363.26 304.062 358.148 305.043 353.216C306.024 348.283 308.446 343.753 312.002 340.197C315.558 336.641 320.088 334.219 325.021 333.238C329.953 332.257 335.065 332.761 339.711 334.685C344.358 336.609 348.329 339.868 351.123 344.05C353.916 348.231 355.408 353.147 355.408 358.176C355.401 364.917 352.72 371.381 347.953 376.148C343.186 380.915 336.723 383.596 329.981 383.603ZM329.981 335.387C325.471 335.387 321.061 336.724 317.311 339.23C313.561 341.737 310.639 345.299 308.913 349.466C307.188 353.633 306.737 358.219 307.618 362.643C308.499 367.066 310.672 371.129 313.862 374.318C317.052 377.506 321.116 379.677 325.541 380.555C329.965 381.434 334.55 380.98 338.716 379.252C342.883 377.524 346.443 374.6 348.947 370.848C351.451 367.096 352.786 362.687 352.784 358.176C352.777 352.132 350.372 346.337 346.097 342.065C341.821 337.792 336.025 335.39 329.981 335.387Z" fill="#FF8BA7"/>
<path opacity="0.3" d="M381.123 399.215H380.965C380.881 399.197 380.801 399.162 380.731 399.112C380.661 399.062 380.601 398.998 380.556 398.925C380.51 398.851 380.48 398.77 380.467 398.684C380.454 398.599 380.459 398.512 380.48 398.428C380.48 398.258 384.705 380.467 380.362 362.479C380.32 362.305 380.349 362.122 380.443 361.969C380.536 361.817 380.687 361.708 380.861 361.666C381.035 361.624 381.218 361.653 381.37 361.747C381.523 361.84 381.632 361.991 381.674 362.165C386.095 380.533 381.831 398.559 381.792 398.73C381.753 398.875 381.665 399.003 381.544 399.091C381.422 399.18 381.273 399.224 381.123 399.215Z" fill="white"/>
<path opacity="0.3" d="M377.462 352.613C377.337 352.612 377.213 352.575 377.107 352.508C377 352.441 376.915 352.346 376.859 352.233C375.228 348.628 373.138 345.25 370.64 342.183C370.531 342.048 370.48 341.877 370.497 341.705C370.514 341.533 370.599 341.374 370.732 341.264C370.799 341.208 370.876 341.166 370.959 341.141C371.043 341.115 371.13 341.106 371.217 341.115C371.304 341.123 371.388 341.149 371.464 341.191C371.541 341.232 371.609 341.288 371.663 341.356C374.223 344.513 376.37 347.982 378.053 351.682C378.09 351.759 378.112 351.843 378.116 351.929C378.12 352.015 378.108 352.1 378.078 352.181C378.049 352.262 378.004 352.336 377.945 352.399C377.887 352.462 377.816 352.512 377.738 352.547C377.651 352.588 377.558 352.61 377.462 352.613Z" fill="white"/>
<path d="M168.894 537.815H168.408C166.669 537.766 165.019 537.028 163.824 535.764C162.628 534.499 161.983 532.811 162.032 531.071C162.081 529.332 162.819 527.682 164.083 526.487C165.348 525.291 167.036 524.646 168.776 524.695H168.894C172.685 524.695 181.804 520.09 200.88 490.019C201.387 489.22 202.06 488.541 202.853 488.026C203.647 487.512 204.542 487.176 205.478 487.04C206.414 486.904 207.368 486.972 208.275 487.239C209.182 487.507 210.021 487.967 210.733 488.589C225.715 501.467 242.053 512.677 259.461 522.019C260.267 522.385 260.99 522.911 261.587 523.564C262.184 524.217 262.643 524.984 262.936 525.819C263.229 526.654 263.349 527.54 263.291 528.423C263.232 529.306 262.996 530.168 262.596 530.958C262.195 531.747 261.639 532.447 260.961 533.016C260.283 533.585 259.497 534.01 258.65 534.267C257.803 534.524 256.913 534.607 256.033 534.511C255.154 534.415 254.302 534.142 253.531 533.708C237.352 525.111 222.059 514.943 207.873 503.349C191.88 527.424 180.02 537.815 168.894 537.815Z" fill="#263238"/>
<path d="M209.487 487.408H208.923C207.892 487.259 206.962 486.707 206.338 485.873C205.713 485.039 205.444 483.992 205.59 482.96C206.522 476.4 205.367 451.958 197.089 432.934C196.721 432.093 196.659 431.151 196.913 430.269C197.167 429.387 197.721 428.622 198.479 428.106C216.454 415.865 254.738 414.395 256.365 414.343C256.882 414.326 257.397 414.41 257.881 414.592C258.365 414.774 258.809 415.05 259.186 415.403C259.564 415.756 259.868 416.18 260.082 416.651C260.296 417.122 260.415 417.631 260.432 418.148C260.449 418.664 260.364 419.18 260.183 419.664C260.001 420.148 259.725 420.591 259.372 420.969C259.019 421.347 258.594 421.651 258.123 421.865C257.653 422.079 257.144 422.198 256.627 422.215C256.273 422.215 222.804 423.527 205.617 432.973C212.938 451.918 214.604 475.521 213.384 484.062C213.242 484.994 212.771 485.844 212.056 486.458C211.341 487.072 210.43 487.409 209.487 487.408Z" fill="#263238"/>
<path d="M216.1 482.317C213.476 476.138 201.668 476.833 194.753 482.134C191.053 484.955 186.042 493.469 185.569 496.566C185.412 497.301 185.435 498.064 185.638 498.789C185.841 499.514 186.216 500.178 186.732 500.725C187.249 501.273 187.89 501.686 188.602 501.931C189.313 502.175 190.074 502.243 190.817 502.129C195.344 501.735 201.549 495.162 201.549 495.162C197.417 499.216 202.756 502.076 210.733 496.211C215.089 492.945 219.025 489.232 216.1 482.317Z" fill="#FF8BA7"/>
<path d="M441.764 401.682C441.703 401.695 441.64 401.695 441.58 401.682C441.496 401.659 441.418 401.62 441.35 401.567C441.282 401.513 441.225 401.446 441.183 401.37C441.142 401.294 441.116 401.211 441.107 401.124C441.099 401.038 441.108 400.951 441.134 400.868C442.879 394.781 444.781 391.068 447.287 389.06C446.894 387.649 446.968 386.149 447.497 384.783C448.108 383.189 449.188 381.817 450.593 380.847C450.211 380.435 449.94 379.932 449.804 379.386C449.669 378.84 449.674 378.268 449.819 377.725C450.294 376.081 451.277 374.63 452.627 373.579C452.14 373.034 451.873 372.328 451.879 371.598C451.879 367.662 459.108 361.732 467.308 360.603C467.482 360.579 467.659 360.625 467.799 360.73C467.939 360.836 468.032 360.993 468.056 361.167C468.08 361.341 468.035 361.518 467.929 361.658C467.823 361.798 467.666 361.891 467.492 361.915C459.699 362.978 453.165 368.62 453.191 371.598C453.188 372.042 453.358 372.47 453.663 372.792C455.428 371.595 457.414 370.761 459.504 370.34C461.595 369.919 463.748 369.918 465.839 370.338C469.867 371.112 471.507 371.965 471.323 373.185C470.956 375.481 462.388 375.967 456.642 375.284C455.612 375.191 454.61 374.902 453.69 374.432C452.452 375.312 451.532 376.568 451.066 378.013C450.953 378.396 450.954 378.803 451.068 379.185C451.182 379.566 451.405 379.907 451.708 380.165C454.149 378.853 457.573 378.381 462.1 379.378C468.043 380.69 468.266 381.412 468.41 381.844C468.456 381.997 468.46 382.16 468.421 382.315C468.382 382.47 468.301 382.611 468.187 382.723C466.941 384.035 457.822 383.419 453.244 382.291C452.691 382.164 452.157 381.966 451.656 381.7C450.301 382.524 449.258 383.774 448.691 385.256C448.312 386.214 448.208 387.259 448.389 388.273C448.623 388.134 448.864 388.007 449.111 387.893C451.827 386.581 455.107 386.817 459.161 388.549C461.785 389.69 463.097 390.714 463.228 391.75C463.234 392.016 463.167 392.278 463.035 392.509C462.904 392.741 462.712 392.932 462.48 393.062C460.473 394.374 453.467 394.19 449.819 392.249C448.98 391.793 448.282 391.117 447.799 390.294C445.66 392.262 443.928 395.765 442.354 401.262C442.306 401.381 442.225 401.484 442.12 401.559C442.016 401.633 441.892 401.676 441.764 401.682ZM448.875 389.441C449.24 390.12 449.796 390.676 450.475 391.042C453.44 392.616 459.266 392.97 461.444 392.091C461.89 391.908 461.955 391.763 461.955 391.763C461.955 391.763 461.89 391.028 458.675 389.651C455.002 388.076 452.115 387.853 449.714 388.969C449.425 389.108 449.144 389.266 448.875 389.441ZM453.257 380.821L453.585 380.913C457.857 381.898 462.254 382.229 466.626 381.897C465.075 381.322 463.477 380.883 461.85 380.585C459.024 379.819 456.036 379.902 453.257 380.821ZM454.91 373.448C455.515 373.665 456.146 373.806 456.786 373.868C463.346 374.642 469.106 373.736 469.906 372.91C469.683 372.713 468.804 372.149 465.55 371.532C461.889 370.802 458.087 371.486 454.91 373.448Z" fill="#263238"/>
<path d="M270.967 535.624C271.833 535.348 271.545 534.509 270.574 534.509H252.809C218.986 530.927 195.357 535.729 210.248 536.857C225.139 537.986 209.198 537.749 198.322 541.869C187.445 545.989 279.207 547.025 287.538 541.869C295.2 537.12 258.976 539.468 270.967 535.624Z" fill="#263238"/>
<path d="M398.153 540.859L243.599 535.729L237.183 385.872L419.696 389.953L398.153 540.859Z" fill="#FF8BA7"/>
<path d="M291.854 537.986C291.689 537.986 291.53 537.924 291.408 537.812C291.287 537.701 291.212 537.547 291.198 537.382L278.813 386.869C278.802 386.696 278.859 386.525 278.972 386.393C279.084 386.261 279.244 386.178 279.417 386.161C279.589 386.153 279.758 386.211 279.89 386.323C280.021 386.435 280.105 386.593 280.125 386.765L292.576 537.277C292.583 537.363 292.573 537.45 292.547 537.532C292.52 537.615 292.478 537.691 292.422 537.757C292.366 537.823 292.297 537.877 292.22 537.916C292.143 537.955 292.059 537.979 291.972 537.986H291.854Z" fill="#263238"/>
<path d="M398.153 540.859L439.691 534.535L452.771 395.188L419.696 389.953L398.153 540.859Z" fill="#FF8BA7"/>
<path opacity="0.2" d="M398.153 540.859L439.691 534.535L452.771 395.188L419.696 389.953L398.153 540.859Z" fill="black"/>
<path d="M256.798 506.852L252.993 417.806C252.899 415.607 253.258 413.411 254.046 411.355C254.834 409.299 256.036 407.427 257.577 405.855C259.118 404.282 260.965 403.042 263.004 402.211C265.043 401.381 267.231 400.977 269.432 401.026L384.967 403.65C387.242 403.701 389.48 404.234 391.534 405.214C393.588 406.194 395.411 407.598 396.882 409.333C398.354 411.069 399.441 413.097 400.072 415.283C400.702 417.47 400.862 419.765 400.54 422.018L387.735 511.68C387.181 515.607 385.197 519.191 382.164 521.746C379.13 524.3 375.26 525.644 371.296 525.522L272.384 522.242C268.324 522.116 264.461 520.46 261.57 517.606C258.679 514.752 256.975 510.91 256.798 506.852Z" fill="#263238"/>
<path d="M269.288 428.355L287.157 428.919L287.013 433.524L275.822 433.17L275.717 436.607L286.095 436.935L285.95 441.344L275.572 441.003L275.441 445.267L286.948 445.634L286.79 450.515L268.593 449.937L269.288 428.355Z" fill="white"/>
<path d="M290.477 450.633L291.159 429.05L302.285 429.405C303.88 429.396 305.468 429.626 306.995 430.087C308.078 430.449 309.004 431.172 309.619 432.134C310.075 432.834 310.382 433.621 310.52 434.445C310.659 435.27 310.626 436.114 310.424 436.925C310.223 437.736 309.856 438.497 309.347 439.16C308.838 439.823 308.198 440.374 307.467 440.78C306.721 441.164 305.92 441.429 305.092 441.567C305.702 441.763 306.281 442.046 306.811 442.406C307.194 442.762 307.537 443.158 307.835 443.587C308.173 443.996 308.471 444.435 308.727 444.899L311.757 451.262L304.227 451.013L300.868 444.309C300.601 443.669 300.209 443.089 299.713 442.603C299.242 442.263 298.68 442.071 298.1 442.052H297.509L297.234 450.803L290.477 450.633ZM297.588 438.011L300.396 438.103C300.992 438.067 301.584 437.984 302.167 437.854C302.606 437.787 303.004 437.558 303.282 437.211C303.566 436.861 303.727 436.428 303.741 435.978C303.766 435.678 303.724 435.376 303.617 435.094C303.51 434.813 303.342 434.559 303.124 434.351C302.392 433.878 301.528 433.652 300.658 433.708L297.719 433.616L297.588 438.011Z" fill="white"/>
<path d="M313.935 451.328L314.618 429.746L325.73 430.1C327.326 430.091 328.913 430.32 330.44 430.782C331.525 431.141 332.452 431.864 333.064 432.829C333.73 433.88 334.043 435.117 333.956 436.358C333.96 437.405 333.681 438.434 333.147 439.335C332.613 440.235 331.846 440.975 330.926 441.475C330.179 441.857 329.378 442.122 328.551 442.262C329.157 442.458 329.732 442.741 330.257 443.102C330.649 443.447 330.997 443.839 331.293 444.269C331.628 444.68 331.927 445.119 332.185 445.581L335.216 451.932L327.685 451.695L324.326 444.991C324.058 444.352 323.666 443.772 323.172 443.285C322.703 442.931 322.132 442.738 321.545 442.734H320.968L320.679 451.499L313.935 451.328ZM321.033 438.707L323.854 438.785C324.451 438.763 325.044 438.684 325.625 438.549C326.062 438.484 326.456 438.254 326.727 437.906C327.021 437.562 327.184 437.125 327.187 436.673C327.215 436.374 327.176 436.072 327.071 435.79C326.967 435.509 326.8 435.254 326.583 435.046C325.851 434.561 324.978 434.335 324.103 434.403L321.178 434.311L321.033 438.707Z" fill="white"/>
<path d="M336.292 441.304C336.191 439.798 336.424 438.289 336.976 436.883C337.527 435.478 338.383 434.213 339.482 433.178C340.581 432.143 341.895 431.365 343.331 430.898C344.767 430.432 346.288 430.289 347.785 430.48C349.296 430.43 350.802 430.684 352.213 431.228C353.623 431.771 354.911 432.592 355.998 433.642C356.969 434.76 357.702 436.063 358.153 437.473C358.604 438.882 358.763 440.369 358.622 441.842C358.633 443.986 358.129 446.1 357.153 448.009C356.268 449.57 354.945 450.838 353.348 451.656C351.465 452.556 349.381 452.954 347.3 452.811C345.224 452.828 343.17 452.38 341.291 451.499C339.69 450.63 338.384 449.306 337.538 447.694C336.546 445.718 336.115 443.508 336.292 441.304ZM342.957 441.541C342.76 443.194 343.135 444.866 344.02 446.277C344.433 446.739 344.936 447.112 345.497 447.376C346.058 447.639 346.666 447.787 347.286 447.81C347.906 447.834 348.523 447.732 349.103 447.511C349.682 447.291 350.211 446.956 350.658 446.526C351.631 445.053 352.092 443.301 351.97 441.541C352.146 439.959 351.761 438.366 350.881 437.04C350.484 436.582 349.992 436.215 349.439 435.963C348.887 435.712 348.287 435.583 347.68 435.584C347.068 435.54 346.453 435.635 345.883 435.862C345.313 436.09 344.801 436.443 344.387 436.896C343.393 438.235 342.889 439.874 342.957 441.541Z" fill="white"/>
<path d="M361.994 452.916L362.676 431.32L373.789 431.674C375.384 431.672 376.97 431.902 378.499 432.357C379.579 432.725 380.503 433.446 381.123 434.403C381.785 435.456 382.098 436.691 382.015 437.933C382.021 438.982 381.743 440.013 381.209 440.917C380.675 441.82 379.906 442.562 378.984 443.062C378.234 443.434 377.434 443.694 376.61 443.837C377.217 444.036 377.791 444.324 378.315 444.689C378.707 445.034 379.056 445.427 379.352 445.857C379.69 446.265 379.988 446.705 380.244 447.169L383.275 453.532L375.744 453.296L372.385 446.579C372.118 445.943 371.725 445.367 371.23 444.886C370.76 444.534 370.191 444.337 369.603 444.322H369.026L368.738 453.086L361.994 452.916ZM369.092 440.281L371.913 440.373C372.509 440.35 373.102 440.271 373.684 440.137C374.118 440.067 374.511 439.838 374.786 439.494C375.096 439.128 375.259 438.661 375.245 438.182C375.273 437.885 375.234 437.585 375.129 437.305C375.025 437.026 374.858 436.774 374.642 436.568C373.91 436.083 373.037 435.857 372.162 435.925L369.236 435.833L369.092 440.281Z" fill="white"/>
<path d="M372.608 489.586C372.362 489.591 372.117 489.543 371.891 489.445C371.665 489.348 371.462 489.204 371.296 489.022L360.065 476.728L347.942 487.802C347.607 488.109 347.162 488.271 346.707 488.251C346.252 488.232 345.823 488.032 345.515 487.697L334.284 475.403L322.162 486.476C321.826 486.784 321.381 486.946 320.926 486.926C320.471 486.907 320.042 486.707 319.734 486.372L308.491 474.078L296.381 485.151C296.204 485.311 295.997 485.434 295.771 485.51C295.545 485.587 295.306 485.617 295.069 485.597C294.613 485.57 294.185 485.368 293.875 485.033L282.644 472.753L270.534 483.813C270.196 484.122 269.75 484.284 269.293 484.264C268.835 484.244 268.404 484.045 268.094 483.708C267.941 483.542 267.822 483.347 267.745 483.134C267.668 482.922 267.634 482.696 267.645 482.47C267.656 482.244 267.712 482.023 267.809 481.818C267.907 481.614 268.044 481.432 268.212 481.281L281.595 469.04C281.933 468.731 282.379 468.569 282.836 468.589C283.294 468.609 283.725 468.809 284.035 469.145L295.266 481.438L307.375 470.365C307.719 470.063 308.165 469.904 308.622 469.919C309.078 469.943 309.507 470.146 309.816 470.483L321.046 482.777L333.169 471.703C333.335 471.549 333.529 471.43 333.741 471.352C333.953 471.273 334.179 471.238 334.405 471.248C334.631 471.258 334.852 471.312 335.057 471.409C335.261 471.505 335.445 471.641 335.596 471.808L346.827 484.102L358.95 473.028C359.286 472.721 359.73 472.559 360.185 472.579C360.641 472.598 361.069 472.798 361.377 473.133L373.92 486.752C374.144 487.003 374.29 487.313 374.341 487.645C374.392 487.977 374.345 488.317 374.206 488.623C374.067 488.929 373.842 489.188 373.558 489.369C373.274 489.549 372.944 489.643 372.608 489.638V489.586Z" fill="white"/>
<path d="M164.984 544.047L156.771 540.124L149.45 504.477L153.425 500.108L164.984 544.047Z" fill="#FF8BA7"/>
<path d="M164.984 544.047L175.887 537.671L166.545 508.308L153.425 500.108L164.984 544.047Z" fill="#FF8BA7"/>
<path opacity="0.2" d="M164.984 544.047L175.887 537.671L166.545 508.308L153.425 500.108L164.984 544.047Z" fill="black"/>
<path d="M343.744 550.528H342.839C341.099 550.481 339.449 549.745 338.252 548.482C337.055 547.218 336.409 545.531 336.456 543.791C336.503 542.051 337.239 540.402 338.502 539.205C339.766 538.007 341.453 537.361 343.193 537.408C353.295 537.736 374.681 531.531 386.909 519.67C387.647 518.946 388.546 518.406 389.533 518.096C410.249 511.877 417.951 524.433 418.266 524.971L406.982 531.649C407.022 531.732 407.07 531.811 407.127 531.885C407.009 531.714 404.07 527.949 394.728 530.258C379.391 544.244 355.854 550.528 343.744 550.528Z" fill="#263238"/>
<path d="M342.944 559.24L319.052 557.744L317.176 513.687L349.281 514.881L342.944 559.24Z" fill="#FF8BA7"/>
<path d="M342.944 559.24L348.533 553.677L351.996 526.217L349.281 514.881L342.944 559.24Z" fill="#FF8BA7"/>
<path opacity="0.2" d="M342.944 559.24L348.533 553.677L351.996 526.217L349.281 514.881L342.944 559.24Z" fill="black"/>
<path d="M481.386 542.565C480.528 542.564 479.694 542.283 479.011 541.764C465.366 531.399 446.933 512.992 439.861 495.241C439.755 494.984 439.68 494.715 439.638 494.44C436.188 473.921 432.894 430.743 432.75 428.919C432.711 428.402 432.775 427.883 432.937 427.39C433.099 426.898 433.356 426.442 433.694 426.05C434.377 425.256 435.347 424.766 436.391 424.688C437.435 424.61 438.467 424.949 439.26 425.632C440.054 426.315 440.544 427.285 440.622 428.329C440.622 428.762 443.994 472.359 447.353 492.709C454.411 509.975 473.593 527.7 483.8 535.493C484.457 535.992 484.941 536.684 485.183 537.473C485.426 538.261 485.414 539.106 485.15 539.888C484.886 540.669 484.383 541.348 483.713 541.829C483.042 542.309 482.237 542.566 481.412 542.565H481.386Z" fill="#263238"/>
<path d="M499.583 544.546C496.54 544.546 493.089 543.168 489.323 540.452C488.478 539.84 487.91 538.917 487.745 537.886C487.581 536.855 487.832 535.8 488.444 534.955C489.057 534.109 489.98 533.542 491.011 533.377C492.042 533.212 493.096 533.463 493.942 534.076C497.196 536.424 498.967 536.7 499.583 536.7C500.627 536.7 501.628 537.115 502.366 537.853C503.105 538.591 503.519 539.592 503.519 540.636C503.519 541.68 503.105 542.681 502.366 543.419C501.628 544.157 500.627 544.572 499.583 544.572V544.546Z" fill="#263238"/>
<path d="M490.426 540.334C494.637 527.831 511.903 530.297 517.86 532.16C522.948 533.637 527.828 535.753 532.383 538.458C535.598 540.557 535.65 544.087 531.36 546.094C526.112 548.56 512.782 546.369 512.782 546.369C519.657 549.374 512.782 554.241 500.699 549.466C496.776 547.918 488.943 544.926 490.426 540.334Z" fill="#FF8BA7"/>
<path d="M448.52 434.272C446.959 444.899 438.156 452.732 430.992 451.682C423.828 450.633 423.54 441.186 425.101 430.507C426.662 419.827 429.496 412.139 436.66 413.188C443.823 414.238 450.082 423.684 448.52 434.272Z" fill="#263238"/>
<path d="M275.363 391.894C275.957 391.894 276.438 391.413 276.438 390.819C276.438 390.224 275.957 389.743 275.363 389.743C274.768 389.743 274.287 390.224 274.287 390.819C274.287 391.413 274.768 391.894 275.363 391.894Z" fill="#263238"/>
<path d="M286.292 398.559C286.292 398.772 286.228 398.98 286.11 399.157C285.992 399.334 285.824 399.472 285.627 399.553C285.431 399.635 285.214 399.656 285.006 399.615C284.797 399.573 284.605 399.471 284.455 399.32C284.304 399.17 284.202 398.978 284.161 398.769C284.119 398.561 284.14 398.344 284.222 398.148C284.303 397.951 284.441 397.783 284.618 397.665C284.795 397.547 285.003 397.484 285.216 397.484C285.501 397.484 285.775 397.597 285.976 397.799C286.178 398 286.292 398.274 286.292 398.559Z" fill="#263238"/>
<path d="M287.499 525.692C287.499 525.905 287.435 526.113 287.317 526.29C287.199 526.467 287.031 526.605 286.834 526.686C286.638 526.768 286.422 526.789 286.213 526.747C286.004 526.706 285.812 526.603 285.662 526.453C285.512 526.302 285.409 526.111 285.368 525.902C285.326 525.693 285.347 525.477 285.429 525.281C285.51 525.084 285.648 524.916 285.825 524.798C286.002 524.679 286.21 524.616 286.423 524.616C286.708 524.616 286.982 524.73 287.183 524.931C287.385 525.133 287.499 525.407 287.499 525.692Z" fill="#263238"/>
<path d="M297.352 533.446C297.352 533.659 297.289 533.867 297.17 534.044C297.052 534.221 296.884 534.359 296.688 534.44C296.491 534.521 296.275 534.543 296.066 534.501C295.857 534.46 295.666 534.357 295.515 534.207C295.365 534.056 295.262 533.865 295.221 533.656C295.179 533.447 295.2 533.231 295.282 533.034C295.363 532.838 295.501 532.67 295.678 532.552C295.855 532.433 296.063 532.37 296.276 532.37C296.561 532.37 296.835 532.484 297.037 532.685C297.238 532.887 297.352 533.161 297.352 533.446Z" fill="#263238"/>
<path d="M108.253 546.343C106.364 546.255 104.519 545.743 102.855 544.846C101.19 543.949 99.7486 542.69 98.6362 541.161C98.5816 541.09 98.542 541.01 98.5196 540.923C98.4973 540.837 98.4927 540.747 98.5062 540.659C98.5197 540.571 98.5509 540.487 98.598 540.412C98.6451 540.336 98.7071 540.271 98.7802 540.22C98.8533 540.169 98.936 540.134 99.0232 540.116C99.1104 540.098 99.2003 540.098 99.2875 540.116C99.3747 540.134 99.4573 540.17 99.5302 540.221C99.6032 540.272 99.6651 540.337 99.712 540.413C102.165 543.955 107.584 545.831 109.946 544.716C110.182 544.616 110.393 544.463 110.562 544.27C109.369 543.745 108.323 542.934 107.518 541.909C106.712 540.884 106.172 539.676 105.944 538.392C105.642 536.726 105.406 534.456 106.771 534.168C108.66 533.748 111.126 538.301 112.019 541.751C112.18 542.322 112.238 542.918 112.189 543.509C112.946 543.735 113.742 543.797 114.524 543.693C114.877 543.666 115.22 543.565 115.532 543.398C115.844 543.231 116.117 543.001 116.335 542.722C115.472 542.07 114.755 541.244 114.233 540.297C113.711 539.349 113.394 538.303 113.304 537.225C112.806 533.63 113.186 533.013 113.58 532.698C113.707 532.6 113.86 532.54 114.019 532.524C114.179 532.508 114.341 532.536 114.485 532.606C115.889 533.197 117.581 538.287 117.909 541.174C117.949 541.474 117.949 541.779 117.909 542.079C118.475 542.297 119.075 542.412 119.681 542.42C120.793 542.463 121.894 542.176 122.843 541.594C122.659 541.476 122.488 541.344 122.318 541.213C121.006 540.045 120.402 538.182 120.638 535.532C120.822 533.472 121.281 532.344 122.108 531.99C122.375 531.883 122.667 531.856 122.948 531.912C123.23 531.967 123.49 532.104 123.695 532.305C124.581 533.283 125.243 534.442 125.635 535.702C126.027 536.961 126.14 538.292 125.965 539.599C125.851 540.144 125.623 540.658 125.296 541.108C127.71 541.528 131.095 540.846 134.021 540.124C134.107 540.104 134.196 540.1 134.284 540.114C134.371 540.128 134.455 540.159 134.531 540.205C134.606 540.251 134.672 540.312 134.724 540.384C134.776 540.455 134.814 540.537 134.834 540.623C134.855 540.709 134.858 540.798 134.845 540.886C134.831 540.973 134.8 541.057 134.753 541.133C134.707 541.208 134.646 541.274 134.575 541.326C134.503 541.378 134.422 541.416 134.336 541.436C130.78 542.315 126.949 543.037 124.246 542.25C122.927 543.253 121.312 543.788 119.654 543.772C118.919 543.762 118.191 543.624 117.503 543.365C117.197 543.837 116.788 544.233 116.306 544.521C115.824 544.81 115.281 544.985 114.721 545.031C113.735 545.158 112.733 545.073 111.782 544.782C111.476 545.297 111.018 545.705 110.47 545.949C109.767 546.233 109.012 546.367 108.253 546.343ZM107.125 535.48C106.943 536.372 106.979 537.294 107.23 538.169C107.415 539.218 107.85 540.207 108.499 541.052C109.147 541.898 109.99 542.574 110.956 543.024C110.937 542.713 110.885 542.405 110.798 542.105C109.775 538.353 107.807 535.768 107.125 535.48ZM114.433 534.338C114.441 535.243 114.516 536.147 114.656 537.041C114.8 538.641 115.507 540.137 116.65 541.266C116.327 538.843 115.576 536.498 114.433 534.338ZM122.685 533.197C122.685 533.197 122.187 533.446 122.003 535.637C121.819 537.828 122.2 539.337 123.223 540.216C123.465 540.412 123.729 540.58 124.01 540.715C124.355 540.345 124.599 539.894 124.719 539.403C124.952 537.337 124.395 535.261 123.157 533.59C122.882 533.249 122.724 533.197 122.685 533.197Z" fill="#263238"/>
<path d="M300.277 556.262L303.833 550.095L300.277 543.929H296.473L298.624 550.095L296.473 556.262H300.277Z" fill="#263238"/>
<path d="M296.722 553.31C296.283 553.338 295.844 553.276 295.43 553.127C295.017 552.979 294.638 552.747 294.317 552.446C293.997 552.146 293.742 551.782 293.567 551.379C293.392 550.976 293.302 550.541 293.302 550.102C293.302 549.662 293.392 549.228 293.567 548.825C293.742 548.421 293.997 548.058 294.317 547.758C294.638 547.457 295.017 547.225 295.43 547.077C295.844 546.928 296.283 546.866 296.722 546.894L290.687 545.687L289.073 550.568L291.776 554.687L296.722 553.31Z" fill="#263238"/>
<path d="M297.247 543.929H290.123L286.567 550.095L290.123 556.262H297.247L300.802 550.095L297.247 543.929ZM293.691 553.31C293.055 553.312 292.432 553.126 291.902 552.774C291.371 552.423 290.957 551.922 290.712 551.335C290.467 550.747 290.401 550.101 290.524 549.476C290.646 548.852 290.951 548.278 291.401 547.827C291.85 547.376 292.422 547.069 293.046 546.944C293.67 546.819 294.317 546.882 294.905 547.124C295.493 547.367 295.996 547.779 296.35 548.308C296.704 548.837 296.892 549.459 296.892 550.095C296.892 550.946 296.556 551.761 295.956 552.364C295.356 552.966 294.541 553.306 293.691 553.31Z" fill="#FF8BA7"/>
<path d="M548.272 543.509L545.635 538.93L548.272 534.351H551.092L549.505 538.93L551.092 543.509H548.272Z" fill="#FF8BA7"/>
<path d="M550.909 541.318C551.236 541.342 551.565 541.299 551.875 541.19C552.185 541.082 552.47 540.91 552.71 540.687C552.951 540.463 553.143 540.192 553.274 539.891C553.406 539.59 553.474 539.265 553.474 538.937C553.474 538.608 553.406 538.283 553.274 537.982C553.143 537.681 552.951 537.41 552.71 537.187C552.47 536.963 552.185 536.792 551.875 536.683C551.565 536.575 551.236 536.531 550.909 536.555L555.396 535.663L556.59 539.284L554.596 542.341L550.909 541.318Z" fill="#FF8BA7"/>
<path d="M550.528 534.351H555.776L558.4 538.93L555.776 543.509H550.528L547.904 538.93L550.528 534.351ZM553.152 541.318C553.625 541.321 554.088 541.183 554.483 540.922C554.877 540.661 555.185 540.289 555.368 539.853C555.551 539.417 555.6 538.937 555.509 538.472C555.418 538.008 555.192 537.582 554.859 537.246C554.525 536.911 554.1 536.682 553.636 536.589C553.173 536.496 552.692 536.543 552.255 536.723C551.818 536.903 551.444 537.209 551.181 537.602C550.918 537.995 550.778 538.457 550.778 538.93C550.776 539.244 550.836 539.556 550.956 539.846C551.075 540.137 551.251 540.4 551.473 540.623C551.695 540.845 551.959 541.02 552.25 541.14C552.54 541.259 552.851 541.32 553.165 541.318H553.152Z" fill="#263238"/>
<path d="M450.016 549.597H455.946C456.689 549.593 457.399 549.296 457.923 548.77C458.447 548.244 458.741 547.532 458.741 546.789C458.741 546.047 458.447 545.335 457.923 544.808C457.399 544.282 456.689 543.985 455.946 543.981H450.016C449.271 543.981 448.557 544.277 448.031 544.804C447.504 545.33 447.208 546.045 447.208 546.789C447.208 547.534 447.504 548.248 448.031 548.774C448.557 549.301 449.271 549.597 450.016 549.597Z" fill="#263238"/>
<path d="M440.478 544.296C441.028 543.295 441.859 542.477 442.869 541.943C443.879 541.409 445.023 541.182 446.16 541.29C447.297 541.399 448.377 541.837 449.268 542.552C450.159 543.267 450.821 544.227 451.173 545.314C451.524 546.401 451.55 547.567 451.247 548.668C450.944 549.769 450.326 550.758 449.467 551.512C448.609 552.265 447.549 552.752 446.418 552.91C445.287 553.069 444.134 552.893 443.102 552.404C441.683 551.673 440.611 550.41 440.119 548.891C439.628 547.372 439.757 545.721 440.478 544.296Z" fill="#FF8BA7"/>
<path d="M442.078 552.403L443.704 553.169L449.354 541.183L447.728 540.417L442.078 552.403Z" fill="#263238"/>
</svg>
