<svg width="30" height="28" viewBox="0 0 30 28" fill="none" xmlns="http://www.w3.org/2000/svg">
<g clip-path="url(#clip0_27_335)">
<path d="M29.5 14C29.5 6.26801 23.0081 0 15 0C6.99187 0 0.5 6.26801 0.5 14C0.5 20.9878 5.80244 26.7796 12.7344 27.8299V18.0469H9.05273V14H12.7344V10.9156C12.7344 7.40688 14.8991 5.46875 18.2112 5.46875C19.7977 5.46875 21.457 5.74219 21.457 5.74219V9.1875H19.6286C17.8274 9.1875 17.2656 10.2667 17.2656 11.3738V14H21.2871L20.6442 18.0469H17.2656V27.8299C24.1976 26.7796 29.5 20.9878 29.5 14Z" fill="#100F0D"/>
<path d="M20.6442 18.0469L21.2871 14H17.2656V11.3738C17.2656 10.2667 17.8274 9.1875 19.6286 9.1875H21.457V5.74219C21.457 5.74219 19.7977 5.46875 18.2112 5.46875C14.8991 5.46875 12.7344 7.40688 12.7344 10.9156V14H9.05273V18.0469H12.7344V27.8299C13.4726 27.9418 14.2292 28 15 28C15.7708 28 16.5274 27.9418 17.2656 27.8299V18.0469H20.6442Z" fill="white"/>
</g>
<defs>
<clipPath id="clip0_27_335">
<rect width="29" height="28" fill="white" transform="translate(0.5)"/>
</clipPath>
</defs>
</svg>
