<svg width="38" height="28" viewBox="0 0 38 28" fill="none" xmlns="http://www.w3.org/2000/svg">
<g clip-path="url(#clip0_45_25)">
<path d="M3.05228 28H9.0076V13.6L0.5 7.2V25.45C0.5 26.85 1.65103 28 3.05228 28Z" fill="#100F0D"/>
<path d="M29.3757 28H35.331C36.7323 28 37.8833 26.85 37.8833 25.45V7.2L29.3757 13.55" fill="#100F0D"/>
<path d="M29.3757 2.55V13.6L37.8833 7.25V3.8C37.8833 0.650002 34.2801 -1.15 31.7779 0.750002" fill="#100F0D"/>
<path d="M9.00757 13.6V2.55L19.2167 10.2L29.3758 2.55V13.6L19.1666 21.2" fill="#100F0D"/>
<path d="M0.5 3.80002V7.20002L9.0076 13.55V2.55002L6.60545 0.750015C4.10322 -1.09999 0.5 0.700015 0.5 3.80002Z" fill="#100F0D"/>
</g>
<defs>
<clipPath id="clip0_45_25">
<rect width="37.3333" height="28" fill="white" transform="translate(0.5)"/>
</clipPath>
</defs>
</svg>
