<svg width="1440" height="1024" viewBox="0 0 1440 1024" fill="none" xmlns="http://www.w3.org/2000/svg">
<line x1="98.25" y1="-1.09278e-08" x2="98.25" y2="1024" stroke="#8D8D8D" stroke-opacity="0.42" stroke-width="0.5"/>
<line x1="178.25" y1="-1.09278e-08" x2="178.25" y2="530" stroke="#8D8D8D" stroke-opacity="0.42" stroke-width="0.5"/>
<line x1="1206" y1="747.25" x2="676" y2="747.25" stroke="#8D8D8D" stroke-opacity="0.42" stroke-width="0.5"/>
<line x1="1205.75" y1="1024" x2="1205.75" y2="530" stroke="#8D8D8D" stroke-opacity="0.42" stroke-width="0.5"/>
<line x1="1285.75" y1="1024" x2="1285.75" y2="659" stroke="#8D8D8D" stroke-opacity="0.42" stroke-width="0.5"/>
<line x1="1365.75" y1="1024" x2="1365.75" y2="685" stroke="#8D8D8D" stroke-opacity="0.42" stroke-width="0.5"/>
<line x1="497" y1="530.25" y2="530.25" stroke="#8D8D8D" stroke-opacity="0.42" stroke-width="0.5"/>
<line x1="258.25" y1="-1.09278e-08" x2="258.25" y2="239" stroke="#8D8D8D" stroke-opacity="0.42" stroke-width="0.5"/>
<line x1="1206" y1="827.25" x2="676" y2="827.25" stroke="#8D8D8D" stroke-opacity="0.42" stroke-width="0.5"/>
<line x1="497" y1="610.25" x2="342" y2="610.25" stroke="#8D8D8D" stroke-opacity="0.42" stroke-width="0.5"/>
<line x1="174" y1="610.25" y2="610.25" stroke="#8D8D8D" stroke-opacity="0.42" stroke-width="0.5"/>
<line x1="497" y1="930.25" y2="930.25" stroke="#8D8D8D" stroke-opacity="0.42" stroke-width="0.5"/>
<line x1="338.25" y1="-1.09278e-08" x2="338.25" y2="220" stroke="#8D8D8D" stroke-opacity="0.42" stroke-width="0.5"/>
<line x1="1206" y1="907.25" x2="676" y2="907.25" stroke="#8D8D8D" stroke-opacity="0.42" stroke-width="0.5"/>
<line x1="497" y1="690.25" y2="690.25" stroke="#8D8D8D" stroke-opacity="0.42" stroke-width="0.5"/>
<line x1="497" y1="1010.25" y2="1010.25" stroke="#8D8D8D" stroke-opacity="0.42" stroke-width="0.5"/>
<line x1="418.25" y1="-1.09278e-08" x2="418.25" y2="244" stroke="#8D8D8D" stroke-opacity="0.42" stroke-width="0.5"/>
<line x1="1206" y1="987.25" x2="676" y2="987.25" stroke="#8D8D8D" stroke-opacity="0.42" stroke-width="0.5"/>
<line x1="498.25" y1="-1.09278e-08" x2="498.25" y2="1024" stroke="#8D8D8D" stroke-opacity="0.42" stroke-width="0.5"/>
<line x1="578.25" y1="-1.09278e-08" x2="578.25" y2="530" stroke="#8D8D8D" stroke-opacity="0.42" stroke-width="0.5"/>
<line x1="676.25" y1="530" x2="676.25" y2="1024" stroke="#8D8D8D" stroke-opacity="0.42" stroke-width="0.5"/>
<line x1="898.25" y1="261" x2="898.25" y2="530" stroke="#8D8D8D" stroke-opacity="0.42" stroke-width="0.5"/>
<line x1="978.25" y1="261" x2="978.25" y2="530" stroke="#8D8D8D" stroke-opacity="0.42" stroke-width="0.5"/>
<line x1="1058.25" y1="261" x2="1058.25" y2="530" stroke="#8D8D8D" stroke-opacity="0.42" stroke-width="0.5"/>
<line x1="1138.25" y1="261" x2="1138.25" y2="530" stroke="#8D8D8D" stroke-opacity="0.42" stroke-width="0.5"/>
<line x1="1218.25" y1="261" x2="1218.25" y2="530" stroke="#8D8D8D" stroke-opacity="0.42" stroke-width="0.5"/>
<line x1="1298.25" y1="-1.09278e-08" x2="1298.25" y2="530" stroke="#8D8D8D" stroke-opacity="0.42" stroke-width="0.5"/>
<line x1="1378.25" y1="-1.09278e-08" x2="1378.25" y2="530" stroke="#8D8D8D" stroke-opacity="0.42" stroke-width="0.5"/>
<line x1="497" y1="529.75" x2="1440" y2="529.75" stroke="#8D8D8D" stroke-opacity="0.42" stroke-width="0.5"/>
<line x1="-2.18557e-08" y1="147.75" x2="178" y2="147.75" stroke="#8D8D8D" stroke-opacity="0.42" stroke-width="0.5"/>
<line x1="898" y1="260.75" x2="1298" y2="260.75" stroke="#8D8D8D" stroke-opacity="0.42" stroke-width="0.5"/>
<line x1="98" y1="746.75" x2="676" y2="746.75" stroke="#8D8D8D" stroke-opacity="0.42" stroke-width="0.5"/>
<circle cx="738" cy="265" r="159.75" stroke="#8D8D8D" stroke-opacity="0.42" stroke-width="0.5"/>
<circle cx="334" cy="375" r="154.75" stroke="#8D8D8D" stroke-opacity="0.42" stroke-width="0.5"/>
<circle cx="16" cy="152" r="159.75" stroke="#8D8D8D" stroke-opacity="0.42" stroke-width="0.5"/>
<circle cx="258" cy="747" r="159.75" stroke="#8D8D8D" stroke-opacity="0.42" stroke-width="0.5"/>
<circle cx="1378" cy="525" r="159.75" stroke="#8D8D8D" stroke-opacity="0.42" stroke-width="0.5"/>
</svg>
