<svg width="40" height="39" viewBox="0 0 40 39" fill="none" xmlns="http://www.w3.org/2000/svg">
<g clip-path="url(#clip0_26_305)">
<path fill-rule="evenodd" clip-rule="evenodd" d="M33.8175 5.66313C30.1518 2.01302 25.2765 0.00185191 20.0819 0C9.37803 0 0.666667 8.66231 0.662942 19.3098C0.66108 22.7136 1.55587 26.0359 3.25512 28.9639L0.5 38.9716L10.7942 36.2863C13.6303 37.8253 16.824 38.6354 20.0736 38.6364H20.0819C30.7839 38.6364 39.4963 29.9731 39.5 19.3256C39.5018 14.1653 37.4841 9.31418 33.8175 5.66406V5.66313ZM20.0819 35.3752H20.0754C17.1796 35.3743 14.3389 34.6001 11.8604 33.138L11.271 32.79L5.16202 34.3835L6.79237 28.4601L6.40875 27.8527C4.79329 25.2971 3.93947 22.3432 3.94134 19.3108C3.94507 10.4614 11.1853 3.26121 20.0885 3.26121C24.3994 3.26306 28.4516 4.93442 31.499 7.96877C34.5466 11.0022 36.2235 15.0357 36.2216 19.3237C36.2178 28.1741 28.9777 35.3743 20.0819 35.3743V35.3752ZM28.9348 23.3544C28.4497 23.1128 26.0643 21.946 25.6191 21.7849C25.1741 21.6238 24.8511 21.5433 24.5279 22.0266C24.2049 22.51 23.2747 23.597 22.9916 23.9183C22.7086 24.2405 22.4255 24.2804 21.9404 24.0387C21.4553 23.797 19.892 23.2877 18.0382 21.6441C16.596 20.3645 15.6219 18.7849 15.339 18.3015C15.0559 17.8182 15.3092 17.557 15.5512 17.3172C15.769 17.1005 16.0363 16.7533 16.2793 16.4718C16.5224 16.1903 16.6024 15.9885 16.7644 15.6671C16.9265 15.3449 16.8454 15.0635 16.7244 14.8217C16.6033 14.5801 15.6332 12.205 15.2281 11.2392C14.8342 10.2985 14.4339 10.4263 14.1369 10.4105C13.8538 10.3966 13.5308 10.3938 13.2067 10.3938C12.8827 10.3938 12.3575 10.5142 11.9125 10.9976C11.4675 11.4809 10.2142 12.6485 10.2142 15.0226C10.2142 17.3968 11.9526 19.6923 12.1956 20.0145C12.4385 20.3368 15.6173 25.2101 20.4841 27.3009C21.6416 27.7981 22.5456 28.0953 23.2504 28.3176C24.4125 28.6851 25.4702 28.6333 26.3063 28.5092C27.2384 28.3703 29.1769 27.3416 29.581 26.2147C29.9851 25.0878 29.9851 24.1211 29.8641 23.9201C29.7431 23.7192 29.419 23.5979 28.9339 23.3563L28.9348 23.3544Z" fill="#111B21"/>
</g>
<defs>
<clipPath id="clip0_26_305">
<rect width="39" height="39" fill="white" transform="translate(0.5)"/>
</clipPath>
</defs>
</svg>
